{
date = "2016-02-09 22:47:20 +0000";
familyName = "Nouvelle police";
featurePrefixes = (
{
automatic = 1;
code = "languagesystem DFLT dflt;\012";
name = Languagesystems;
}
);
features = (
{
automatic = 1;
code = "feature sups;\012feature frac;\012feature ordn;\012";
name = aalt;
},
{
automatic = 1;
code = "sub one by onesuperior;\012sub two by twosuperior;\012sub three by threesuperior;\012";
name = sups;
},
{
automatic = 1;
code = "sub one slash four by onequarter;\012sub one slash two by onehalf;\012sub three slash four by threequarters;\012";
name = frac;
},
{
automatic = 1;
code = "sub [zero one two three four five six seven eight nine] [A a]' by ordfeminine;\012sub [zero one two three four five six seven eight nine] [O o]' by ordmasculine;\012";
name = ordn;
},
{
automatic = 1;
code = "sub f i by fi;\012sub f f by f_f;\012sub f l by fl;\012";
name = liga;
}
);
fontMaster = (
{
ascender = 800;
capHeight = 700;
descender = -200;
id = "BD382907-E334-4565-904D-93E96FA04A02";
xHeight = 500;
}
);
glyphs = (
{
color = 1;
glyphname = A;
lastChange = "2016-02-25 18:58:26 +0000";
layers = (
{
anchors = (
{
name = circumflex;
position = "{302, 700}";
},
{
name = dieresis;
position = "{301, 700}";
},
{
name = grave;
position = "{387, 700}";
},
{
name = ogonek;
position = "{439, -8}";
},
{
name = ring;
position = "{297, 700}";
},
{
name = top;
position = "{299, 700}";
}
);
layerId = "BD382907-E334-4565-904D-93E96FA04A02";
name = Regular;
paths = (
{
closed = 1;
nodes = (
"110 722 OFFCURVE",
"28 673 OFFCURVE",
"36 632 CURVE SMOOTH",
"44 597 OFFCURVE",
"123 608 OFFCURVE",
"161 608 CURVE SMOOTH",
"199 608 OFFCURVE",
"308 608 OFFCURVE",
"321 608 CURVE SMOOTH",
"385 608 OFFCURVE",
"392 601 OFFCURVE",
"392 532 CURVE SMOOTH",
"392 510 OFFCURVE",
"395 472 OFFCURVE",
"389 464 CURVE SMOOTH",
"384 456 OFFCURVE",
"351 456 OFFCURVE",
"338 456 CURVE",
"244 456 LINE",
"244 456 OFFCURVE",
"244 562 OFFCURVE",
"236 581 CURVE SMOOTH",
"228 594 OFFCURVE",
"213 608 OFFCURVE",
"194 608 CURVE SMOOTH",
"170 608 OFFCURVE",
"101 534 OFFCURVE",
"101 510 CURVE",
"112 510 OFFCURVE",
"129 507 OFFCURVE",
"129 477 CURVE SMOOTH",
"129 431 OFFCURVE",
"129 114 OFFCURVE",
"129 100 CURVE SMOOTH",
"129 16 OFFCURVE",
"62 -15 OFFCURVE",
"66 -25 CURVE SMOOTH",
"72 -40 OFFCURVE",
"123 -16 OFFCURVE",
"139 -6 CURVE SMOOTH",
"167 11 OFFCURVE",
"244 43 OFFCURVE",
"244 149 CURVE",
"244 372 LINE",
"392 372 LINE",
"392 167 OFFCURVE",
"392 109 OFFCURVE",
"392 40 CURVE SMOOTH",
"392 7 OFFCURVE",
"411 -12 OFFCURVE",
"437 -12 CURVE SMOOTH",
"485 -12 OFFCURVE",
"536 70 OFFCURVE",
"536 84 CURVE",
"515 84 OFFCURVE",
"507 97 OFFCURVE",
"507 170 CURVE SMOOTH",
"507 260 OFFCURVE",
"507 602 OFFCURVE",
"507 616 CURVE SMOOTH",
"507 695 OFFCURVE",
"496 700 OFFCURVE",
"422 700 CURVE SMOOTH",
"368 700 OFFCURVE",
"194 700 OFFCURVE",
"169 700 CURVE SMOOTH",
"153 700 OFFCURVE",
"150 714 OFFCURVE",
"150 722 CURVE"
);
}
);
width = 571;
}
);
unicode = 0041;
},
{
glyphname = AE;
lastChange = "2016-02-25 18:30:10 +0000";
layers = (
{
layerId = "BD382907-E334-4565-904D-93E96FA04A02";
name = Regular;
paths = (
{
closed = 1;
nodes = (
"503 181 LINE",
"496 179 OFFCURVE",
"388 121 OFFCURVE",
"388 113 CURVE",
"389 365 LINE",
"236 365 LINE",
"236 365 OFFCURVE",
"236 244 OFFCURVE",
"236 149 CURVE SMOOTH",
"236 43 OFFCURVE",
"169 16 OFFCURVE",
"141 -6 CURVE SMOOTH",
"125 -17 OFFCURVE",
"74 -49 OFFCURVE",
"68 -25 CURVE SMOOTH",
"65 -13 OFFCURVE",
"131 16 OFFCURVE",
"131 100 CURVE SMOOTH",
"131 114 OFFCURVE",
"131 431 OFFCURVE",
"131 477 CURVE SMOOTH",
"131 507 OFFCURVE",
"114 510 OFFCURVE",
"103 510 CURVE",
"103 534 OFFCURVE",
"174 608 OFFCURVE",
"198 608 CURVE SMOOTH",
"217 608 OFFCURVE",
"226 594 OFFCURVE",
"234 581 CURVE SMOOTH",
"242 562 OFFCURVE",
"242 450 OFFCURVE",
"242 450 CURVE SMOOTH",
"242 450 OFFCURVE",
"326 450 OFFCURVE",
"340 450 CURVE SMOOTH",
"353 450 OFFCURVE",
"389 448 OFFCURVE",
"389 468 CURVE",
"389 532 LINE",
"389 583 OFFCURVE",
"378 585 OFFCURVE",
"323 585 CURVE SMOOTH",
"310 585 OFFCURVE",
"503 630 OFFCURVE",
"503 616 CURVE"
);
},
{
closed = 1;
nodes = (
"389 475 OFFCURVE",
"503 579 OFFCURVE",
"503 554 CURVE",
"503 450 LINE",
"696 450 LINE",
"696 450 OFFCURVE",
"734 454 OFFCURVE",
"734 420 CURVE SMOOTH",
"734 387 OFFCURVE",
"660 326 OFFCURVE",
"624 326 CURVE",
"624 343 OFFCURVE",
"622 365 OFFCURVE",
"576 365 CURVE",
"503 365 LINE",
"503 365 OFFCURVE",
"505 181 OFFCURVE",
"502 170 CURVE SMOOTH",
"498 158 OFFCURVE",
"423 62 OFFCURVE",
"405 66 CURVE SMOOTH",
"396 68 OFFCURVE",
"388 76 OFFCURVE",
"388 107 CURVE",
"388 107 OFFCURVE",
"389 435 OFFCURVE",
"389 458 CURVE SMOOTH"
);
},
{
closed = 1;
nodes = (
"323 10 OFFCURVE",
"386 76 OFFCURVE",
"395 85 CURVE",
"413 90 OFFCURVE",
"513 88 OFFCURVE",
"584 88 CURVE SMOOTH",
"631 88 OFFCURVE",
"646 98 OFFCURVE",
"646 118 CURVE",
"694 118 OFFCURVE",
"752 66 OFFCURVE",
"752 22 CURVE SMOOTH",
"752 2 OFFCURVE",
"732 0 OFFCURVE",
"700 0 CURVE SMOOTH",
"668 0 OFFCURVE",
"325 0 OFFCURVE",
"325 0 CURVE"
);
},
{
closed = 1;
nodes = (
"743 700 LINE",
"754 700 OFFCURVE",
"770 700 OFFCURVE",
"770 671 CURVE SMOOTH",
"770 627 OFFCURVE",
"702 556 OFFCURVE",
"668 556 CURVE",
"668 577 OFFCURVE",
"664 585 OFFCURVE",
"649 585 CURVE SMOOTH",
"642 585 OFFCURVE",
"78 585 OFFCURVE",
"67 585 CURVE SMOOTH",
"56 585 OFFCURVE",
"40 592 OFFCURVE",
"40 612 CURVE SMOOTH",
"40 647 OFFCURVE",
"111 725 OFFCURVE",
"141 725 CURVE",
"141 704 OFFCURVE",
"153 700 OFFCURVE",
"164 700 CURVE",
"386 700 LINE",
"401 700 OFFCURVE",
"412 693 OFFCURVE",
"419 682 CURVE",
"424 689 OFFCURVE",
"429 694 OFFCURVE",
"434 700 CURVE"
);
}
);
width = 810;
}
);
unicode = 00C6;
},
{
glyphname = B;
lastChange = "2016-02-15 11:10:53 +0000";
layers = (
{
layerId = "BD382907-E334-4565-904D-93E96FA04A02";
name = Regular;
paths = (
{
closed = 1;
nodes = (
"148 700 OFFCURVE",
"137 700 OFFCURVE",
"137 726 CURVE",
"126 726 OFFCURVE",
"40 669 OFFCURVE",
"40 636 CURVE SMOOTH",
"40 602 OFFCURVE",
"74 603 OFFCURVE",
"85 603 CURVE",
"264 603 LINE",
"358 603 OFFCURVE",
"368 597 OFFCURVE",
"368 492 CURVE SMOOTH",
"368 413 OFFCURVE",
"330 399 OFFCURVE",
"310 391 CURVE SMOOTH",
"286 381 OFFCURVE",
"223 387 OFFCURVE",
"223 387 CURVE",
"156 350 LINE",
"156 350 OFFCURVE",
"148 350 OFFCURVE",
"267 350 CURVE SMOOTH",
"387 350 OFFCURVE",
"418 360 OFFCURVE",
"435 368 CURVE SMOOTH",
"470 385 OFFCURVE",
"488 419 OFFCURVE",
"488 451 CURVE SMOOTH",
"488 477 OFFCURVE",
"488 543 OFFCURVE",
"488 581 CURVE SMOOTH",
"488 622 OFFCURVE",
"470 646 OFFCURVE",
"449 666 CURVE SMOOTH",
"428 686 OFFCURVE",
"383 700 OFFCURVE",
"338 700 CURVE SMOOTH",
"293 700 OFFCURVE",
"179 700 OFFCURVE",
"179 700 CURVE"
);
},
{
closed = 1;
nodes = (
"182 335 OFFCURVE",
"234 342 OFFCURVE",
"264 342 CURVE SMOOTH",
"293 342 OFFCURVE",
"345 328 OFFCURVE",
"361 286 CURVE SMOOTH",
"376 246 OFFCURVE",
"372 212 OFFCURVE",
"372 190 CURVE SMOOTH",
"372 160 OFFCURVE",
"368 127 OFFCURVE",
"353 111 CURVE SMOOTH",
"338 96 OFFCURVE",
"334 93 OFFCURVE",
"305 93 CURVE SMOOTH",
"275 93 OFFCURVE",
"190 93 OFFCURVE",
"190 93 CURVE SMOOTH",
"117 89 LINE SMOOTH",
"117 89 OFFCURVE",
"110 74 OFFCURVE",
"95 48 CURVE SMOOTH",
"84 26 OFFCURVE",
"56 4 OFFCURVE",
"56 4 CURVE",
"59 0 LINE",
"59 0 OFFCURVE",
"208 0 OFFCURVE",
"234 0 CURVE SMOOTH",
"256 0 OFFCURVE",
"305 0 OFFCURVE",
"312 0 CURVE SMOOTH",
"361 0 OFFCURVE",
"416 -4 OFFCURVE",
"454 41 CURVE SMOOTH",
"472 63 OFFCURVE",
"488 94 OFFCURVE",
"488 131 CURVE SMOOTH",
"488 147 OFFCURVE",
"488 245 OFFCURVE",
"488 267 CURVE SMOOTH",
"488 314 OFFCURVE",
"455 352 OFFCURVE",
"424 361 CURVE",
"424 373 OFFCURVE",
"424 380 OFFCURVE",
"424 380 CURVE",
"212 365 LINE",
"182 335 LINE"
);
},
{
closed = 1;
nodes = (
"167 67 OFFCURVE",
"167 85 OFFCURVE",
"167 96 CURVE SMOOTH",
"167 100 OFFCURVE",
"242 186 OFFCURVE",
"242 186 CURVE",
"246 194 OFFCURVE",
"242 495 OFFCURVE",
"242 506 CURVE SMOOTH",
"242 553 OFFCURVE",
"230 604 OFFCURVE",
"189 604 CURVE SMOOTH",
"144 604 OFFCURVE",
"96 541 OFFCURVE",
"96 503 CURVE",
"96 503 OFFCURVE",
"126 510 OFFCURVE",
"126 469 CURVE",
"130 246 LINE",
"130 176 OFFCURVE",
"142 100 OFFCURVE",
"56 4 CURVE",
"167 67 LINE"
);
}
);
width = 528;
}
);
unicode = 0042;
},
{
glyphname = C;
lastChange = "2016-02-25 18:34:00 +0000";
layers = (
{
anchors = (
{
name = cedilla;
position = "{268, 3}";
}
);
background = {
paths = (
{
closed = 1;
nodes = (
"153 701 OFFCURVE",
"397 701 OFFCURVE",
"425 701 CURVE SMOOTH",
"451 701 OFFCURVE",
"481 705 OFFCURVE",
"481 678 CURVE SMOOTH",
"481 652 OFFCURVE",
"395 584 OFFCURVE",
"383 584 CURVE",
"379 610 OFFCURVE",
"353 607 OFFCURVE",
"330 607 CURVE SMOOTH",
"297 607 OFFCURVE",
"183 607 OFFCURVE",
"168 607 CURVE",
"149 568 OFFCURVE",
"138 517 OFFCURVE",
"138 456 CURVE SMOOTH",
"138 426 OFFCURVE",
"146 380 OFFCURVE",
"153 343 CURVE SMOOTH",
"188 215 OFFCURVE",
"255 143 OFFCURVE",
"323 143 CURVE SMOOTH",
"390 143 OFFCURVE",
"436 178 OFFCURVE",
"466 227 CURVE",
"497 204 LINE",
"497 204 OFFCURVE",
"466 139 OFFCURVE",
"409 79 CURVE SMOOTH",
"353 18 OFFCURVE",
"323 0 OFFCURVE",
"277 0 CURVE SMOOTH",
"176 0 OFFCURVE",
"40 199 OFFCURVE",
"40 298 CURVE SMOOTH",
"40 475 OFFCURVE",
"44 543 OFFCURVE",
"153 701 CURVE"
);
}
);
};
layerId = "BD382907-E334-4565-904D-93E96FA04A02";
name = Regular;
paths = (
{
closed = 1;
nodes = (
"58 563 OFFCURVE",
"40 487 OFFCURVE",
"40 361 CURVE SMOOTH",
"40 141 OFFCURVE",
"184 -1 OFFCURVE",
"277 -1 CURVE SMOOTH",
"369 -1 OFFCURVE",
"471 143 OFFCURVE",
"497 203 CURVE",
"466 226 LINE",
"436 178 OFFCURVE",
"390 142 OFFCURVE",
"323 142 CURVE SMOOTH",
"255 142 OFFCURVE",
"188 214 OFFCURVE",
"153 342 CURVE SMOOTH",
"146 379 OFFCURVE",
"138 425 OFFCURVE",
"138 455 CURVE SMOOTH",
"138 516 OFFCURVE",
"149 567 OFFCURVE",
"168 606 CURVE",
"330 606 LINE SMOOTH",
"353 606 OFFCURVE",
"383 609 OFFCURVE",
"383 583 CURVE",
"395 583 OFFCURVE",
"481 651 OFFCURVE",
"481 677 CURVE SMOOTH",
"481 704 OFFCURVE",
"451 700 OFFCURVE",
"425 700 CURVE SMOOTH",
"397 700 OFFCURVE",
"153 700 OFFCURVE",
"153 700 CURVE"
);
}
);
width = 537;
}
);
unicode = 0043;
},
{
glyphname = D;
lastChange = "2016-02-25 16:55:43 +0000";
layers = (
{
layerId = "BD382907-E334-4565-904D-93E96FA04A02";
name = Regular;
paths = (
{
closed = 1;
nodes = (
"387 606 LINE",
"415 606 OFFCURVE",
"444 596 OFFCURVE",
"453 567 CURVE SMOOTH",
"465 540 OFFCURVE",
"464 473 OFFCURVE",
"463 448 CURVE SMOOTH",
"461 423 OFFCURVE",
"458 322 OFFCURVE",
"425 222 CURVE SMOOTH",
"391 122 OFFCURVE",
"353 80 OFFCURVE",
"332 80 CURVE SMOOTH",
"308 80 OFFCURVE",
"296 102 OFFCURVE",
"296 171 CURVE",
"296 508 LINE",
"296 555 OFFCURVE",
"284 606 OFFCURVE",
"243 606 CURVE SMOOTH",
"198 606 OFFCURVE",
"151 543 OFFCURVE",
"151 505 CURVE",
"151 505 OFFCURVE",
"181 512 OFFCURVE",
"181 471 CURVE",
"181 359 OFFCURVE",
"181 179 OFFCURVE",
"181 156 CURVE SMOOTH",
"181 94 OFFCURVE",
"174 -13 OFFCURVE",
"266 -13 CURVE SMOOTH",
"403 -13 OFFCURVE",
"497 176 OFFCURVE",
"540 271 CURVE SMOOTH",
"584 366 OFFCURVE",
"593 452 OFFCURVE",
"593 488 CURVE",
"593 540 LINE",
"593 639 OFFCURVE",
"525 700 OFFCURVE",
"424 700 CURVE SMOOTH",
"382 700 OFFCURVE",
"167 700 OFFCURVE",
"167 700 CURVE",
"151 700 OFFCURVE",
"137 707 OFFCURVE",
"137 722 CURVE",
"112 722 OFFCURVE",
"35 669 OFFCURVE",
"35 636 CURVE SMOOTH",
"35 618 OFFCURVE",
"46 606 OFFCURVE",
"65 606 CURVE SMOOTH",
"84 606 OFFCURVE",
"85 606 OFFCURVE",
"128 606 CURVE"
);
}
);
width = 628;
}
);
unicode = 0044;
},
{
color = 1;
glyphname = E;
lastChange = "2016-02-25 18:58:45 +0000";
layers = (
{
anchors = (
{
name = circumflex;
position = "{302, 700}";
},
{
name = dieresis;
position = "{301, 700}";
},
{
name = grave;
position = "{387, 700}";
},
{
name = ogonek;
position = "{444, 3}";
},
{
name = ring;
position = "{297, 700}";
},
{
name = top;
position = "{299, 700}";
}
);
layerId = "BD382907-E334-4565-904D-93E96FA04A02";
name = Regular;
paths = (
{
closed = 1;
nodes = (
"218 608 OFFCURVE",
"229 572 OFFCURVE",
"229 547 CURVE SMOOTH",
"229 522 OFFCURVE",
"229 443 OFFCURVE",
"229 443 CURVE",
"421 443 LINE",
"421 443 OFFCURVE",
"459 447 OFFCURVE",
"459 413 CURVE SMOOTH",
"459 380 OFFCURVE",
"385 319 OFFCURVE",
"349 319 CURVE",
"349 336 OFFCURVE",
"347 358 OFFCURVE",
"301 358 CURVE",
"229 358 LINE",
"229 358 OFFCURVE",
"232 172 OFFCURVE",
"229 168 CURVE SMOOTH",
"217 151 OFFCURVE",
"148 55 OFFCURVE",
"130 66 CURVE SMOOTH",
"124 70 OFFCURVE",
"113 69 OFFCURVE",
"113 102 CURVE",
"113 100 OFFCURVE",
"114 428 OFFCURVE",
"114 451 CURVE SMOOTH",
"114 474 OFFCURVE",
"115 505 OFFCURVE",
"83 505 CURVE",
"83 555 OFFCURVE",
"165 608 OFFCURVE",
"196 608 CURVE SMOOTH"
);
},
{
closed = 1;
nodes = (
"48 10 OFFCURVE",
"111 75 OFFCURVE",
"120 84 CURVE",
"138 89 OFFCURVE",
"238 87 OFFCURVE",
"309 87 CURVE SMOOTH",
"356 87 OFFCURVE",
"371 97 OFFCURVE",
"371 117 CURVE",
"419 117 OFFCURVE",
"477 66 OFFCURVE",
"477 22 CURVE SMOOTH",
"477 2 OFFCURVE",
"457 0 OFFCURVE",
"425 0 CURVE SMOOTH",
"393 0 OFFCURVE",
"50 0 OFFCURVE",
"50 0 CURVE"
);
},
{
closed = 1;
nodes = (
"349 608 OFFCURVE",
"198 608 OFFCURVE",
"160 608 CURVE SMOOTH",
"122 608 OFFCURVE",
"35 606 OFFCURVE",
"35 642 CURVE SMOOTH",
"35 683 OFFCURVE",
"109 722 OFFCURVE",
"149 722 CURVE",
"149 714 OFFCURVE",
"152 700 OFFCURVE",
"168 700 CURVE",
"181 700 OFFCURVE",
"332 700 OFFCURVE",
"370 700 CURVE SMOOTH",
"408 700 OFFCURVE",
"495 701 OFFCURVE",
"495 666 CURVE SMOOTH",
"495 624 OFFCURVE",
"421 586 OFFCURVE",
"381 586 CURVE",
"381 594 OFFCURVE",
"378 608 OFFCURVE",
"362 608 CURVE"
);
}
);
width = 530;
}
);
unicode = 0045;
},
{
glyphname = F;
lastChange = "2016-02-25 17:01:08 +0000";
layers = (
{
layerId = "BD382907-E334-4565-904D-93E96FA04A02";
name = Regular;
paths = (
{
closed = 1;
nodes = (
"166 708 OFFCURVE",
"168 700 OFFCURVE",
"296 700 CURVE SMOOTH",
"359 700 OFFCURVE",
"404 700 OFFCURVE",
"435 700 CURVE SMOOTH",
"480 700 OFFCURVE",
"495 689 OFFCURVE",
"495 664 CURVE SMOOTH",
"495 644 OFFCURVE",
"458 580 OFFCURVE",
"373 580 CURVE",
"373 605 OFFCURVE",
"375 613 OFFCURVE",
"276 613 CURVE SMOOTH",
"180 613 OFFCURVE",
"121 612 OFFCURVE",
"85 613 CURVE SMOOTH",
"47 613 OFFCURVE",
"35 626 OFFCURVE",
"35 655 CURVE SMOOTH",
"35 679 OFFCURVE",
"79 733 OFFCURVE",
"166 733 CURVE"
);
},
{
closed = 1;
nodes = (
"229 363 LINE",
"301 363 LINE",
"347 363 OFFCURVE",
"349 341 OFFCURVE",
"349 324 CURVE",
"385 324 OFFCURVE",
"459 385 OFFCURVE",
"459 418 CURVE SMOOTH",
"459 452 OFFCURVE",
"421 448 OFFCURVE",
"421 448 CURVE",
"229 448 LINE",
"229 448 OFFCURVE",
"229 527 OFFCURVE",
"229 552 CURVE SMOOTH",
"229 577 OFFCURVE",
"218 613 OFFCURVE",
"196 613 CURVE SMOOTH",
"165 613 OFFCURVE",
"83 560 OFFCURVE",
"83 510 CURVE",
"115 510 OFFCURVE",
"114 479 OFFCURVE",
"114 456 CURVE SMOOTH",
"114 433 OFFCURVE",
"114 105 OFFCURVE",
"114 107 CURVE",
"114 23 OFFCURVE",
"47 -8 OFFCURVE",
"51 -18 CURVE SMOOTH",
"57 -33 OFFCURVE",
"108 -9 OFFCURVE",
"124 1 CURVE SMOOTH",
"152 18 OFFCURVE",
"229 50 OFFCURVE",
"229 156 CURVE"
);
}
);
width = 530;
}
);
unicode = 0046;
},
{
glyphname = G;
lastChange = "2016-02-25 18:52:01 +0000";
layers = (
{
layerId = "BD382907-E334-4565-904D-93E96FA04A02";
name = Regular;
paths = (
{
closed = 1;
nodes = (
"153 700 OFFCURVE",
"397 700 OFFCURVE",
"425 700 CURVE SMOOTH",
"451 700 OFFCURVE",
"481 704 OFFCURVE",
"481 677 CURVE SMOOTH",
"481 651 OFFCURVE",
"395 583 OFFCURVE",
"383 583 CURVE",
"383 609 OFFCURVE",
"353 606 OFFCURVE",
"330 606 CURVE SMOOTH",
"168 606 LINE",
"149 567 OFFCURVE",
"138 516 OFFCURVE",
"138 455 CURVE SMOOTH",
"138 425 OFFCURVE",
"146 379 OFFCURVE",
"153 342 CURVE SMOOTH",
"188 214 OFFCURVE",
"276 142 OFFCURVE",
"323 142 CURVE SMOOTH",
"390 142 OFFCURVE",
"392 164 OFFCURVE",
"392 216 CURVE",
"497 203 LINE",
"471 143 OFFCURVE",
"369 -1 OFFCURVE",
"277 -1 CURVE SMOOTH",
"184 -1 OFFCURVE",
"40 141 OFFCURVE",
"40 361 CURVE SMOOTH",
"40 487 OFFCURVE",
"58 563 OFFCURVE",
"153 700 CURVE"
);
},
{
closed = 1;
nodes = (
"497 203 LINE",
"392 142 LINE",
"392 152 LINE",
"392 313 LINE",
"392 368 OFFCURVE",
"394 390 OFFCURVE",
"385 399 CURVE SMOOTH",
"377 407 OFFCURVE",
"349 406 OFFCURVE",
"299 406 CURVE",
"178 406 LINE",
"168 406 OFFCURVE",
"137 405 OFFCURVE",
"137 435 CURVE SMOOTH",
"137 465 OFFCURVE",
"214 523 OFFCURVE",
"224 523 CURVE",
"224 500 OFFCURVE",
"234 500 OFFCURVE",
"262 500 CURVE",
"262 500 OFFCURVE",
"325 500 OFFCURVE",
"365 500 CURVE SMOOTH",
"406 500 OFFCURVE",
"446 487 OFFCURVE",
"465 469 CURVE SMOOTH",
"484 451 OFFCURVE",
"497 430 OFFCURVE",
"497 393 CURVE",
"497 334 LINE"
);
}
);
width = 537;
}
);
unicode = 0047;
},
{
glyphname = H;
lastChange = "2016-02-25 17:29:29 +0000";
layers = (
{
background = {
paths = (
{
closed = 1;
nodes = (
"213 661 OFFCURVE",
"201 712 OFFCURVE",
"160 712 CURVE SMOOTH",
"115 712 OFFCURVE",
"68 649 OFFCURVE",
"68 611 CURVE",
"68 611 OFFCURVE",
"98 618 OFFCURVE",
"98 577 CURVE",
"98 531 OFFCURVE",
"98 114 OFFCURVE",
"98 100 CURVE SMOOTH",
"98 16 OFFCURVE",
"31 -15 OFFCURVE",
"35 -25 CURVE SMOOTH",
"41 -40 OFFCURVE",
"92 -16 OFFCURVE",
"108 -6 CURVE SMOOTH",
"136 11 OFFCURVE",
"213 43 OFFCURVE",
"213 149 CURVE",
"213 288 LINE",
"361 288 LINE",
"361 187 OFFCURVE",
"361 115 OFFCURVE",
"361 40 CURVE SMOOTH",
"361 7 OFFCURVE",
"380 -12 OFFCURVE",
"406 -12 CURVE SMOOTH",
"453 -12 OFFCURVE",
"505 70 OFFCURVE",
"505 84 CURVE",
"484 84 OFFCURVE",
"476 97 OFFCURVE",
"476 170 CURVE SMOOTH",
"476 260 OFFCURVE",
"476 600 OFFCURVE",
"476 614 CURVE",
"476 661 OFFCURVE",
"464 712 OFFCURVE",
"423 712 CURVE SMOOTH",
"378 712 OFFCURVE",
"331 649 OFFCURVE",
"331 611 CURVE",
"331 611 OFFCURVE",
"361 618 OFFCURVE",
"361 577 CURVE",
"361 555 OFFCURVE",
"364 388 OFFCURVE",
"358 380 CURVE SMOOTH",
"353 372 OFFCURVE",
"320 372 OFFCURVE",
"307 372 CURVE",
"213 372 LINE",
"213 614 LINE"
);
}
);
};
layerId = "BD382907-E334-4565-904D-93E96FA04A02";
name = Regular;
paths = (
{
closed = 1;
nodes = (
"213 661 OFFCURVE",
"201 712 OFFCURVE",
"160 712 CURVE SMOOTH",
"115 712 OFFCURVE",
"68 649 OFFCURVE",
"68 611 CURVE",
"68 611 OFFCURVE",
"98 618 OFFCURVE",
"98 577 CURVE",
"98 531 OFFCURVE",
"98 114 OFFCURVE",
"98 100 CURVE SMOOTH",
"98 16 OFFCURVE",
"31 -15 OFFCURVE",
"35 -25 CURVE SMOOTH",
"41 -40 OFFCURVE",
"92 -16 OFFCURVE",
"108 -6 CURVE SMOOTH",
"136 11 OFFCURVE",
"213 43 OFFCURVE",
"213 149 CURVE",
"213 288 LINE",
"361 288 LINE",
"361 187 OFFCURVE",
"361 115 OFFCURVE",
"361 40 CURVE SMOOTH",
"361 7 OFFCURVE",
"380 -12 OFFCURVE",
"406 -12 CURVE SMOOTH",
"453 -12 OFFCURVE",
"505 70 OFFCURVE",
"505 84 CURVE",
"484 84 OFFCURVE",
"476 97 OFFCURVE",
"476 170 CURVE SMOOTH",
"476 260 OFFCURVE",
"476 600 OFFCURVE",
"476 614 CURVE",
"476 661 OFFCURVE",
"464 712 OFFCURVE",
"423 712 CURVE SMOOTH",
"378 712 OFFCURVE",
"331 649 OFFCURVE",
"331 611 CURVE",
"331 611 OFFCURVE",
"361 618 OFFCURVE",
"361 577 CURVE",
"361 555 OFFCURVE",
"364 388 OFFCURVE",
"358 380 CURVE SMOOTH",
"353 372 OFFCURVE",
"320 372 OFFCURVE",
"307 372 CURVE",
"213 372 LINE",
"213 614 LINE"
);
}
);
width = 540;
}
);
unicode = 0048;
},
{
glyphname = N;
lastChange = "2016-02-25 18:44:43 +0000";
layers = (
{
layerId = "BD382907-E334-4565-904D-93E96FA04A02";
name = Regular;
paths = (
{
closed = 1;
nodes = (
"61 611 OFFCURVE",
"65 599 OFFCURVE",
"65 588 CURVE SMOOTH",
"65 582 OFFCURVE",
"65 25 OFFCURVE",
"65 15 CURVE SMOOTH",
"65 4 OFFCURVE",
"65 -12 OFFCURVE",
"94 -12 CURVE SMOOTH",
"138 -12 OFFCURVE",
"209 56 OFFCURVE",
"209 90 CURVE",
"188 90 OFFCURVE",
"180 94 OFFCURVE",
"180 109 CURVE SMOOTH",
"180 116 OFFCURVE",
"180 674 OFFCURVE",
"180 685 CURVE SMOOTH",
"180 696 OFFCURVE",
"173 712 OFFCURVE",
"153 712 CURVE SMOOTH",
"118 712 OFFCURVE",
"40 641 OFFCURVE",
"40 611 CURVE"
);
},
{
closed = 1;
nodes = (
"403 611 OFFCURVE",
"407 599 OFFCURVE",
"407 588 CURVE SMOOTH",
"407 582 OFFCURVE",
"407 25 OFFCURVE",
"407 15 CURVE SMOOTH",
"407 4 OFFCURVE",
"407 -12 OFFCURVE",
"436 -12 CURVE SMOOTH",
"480 -12 OFFCURVE",
"551 56 OFFCURVE",
"551 90 CURVE",
"530 90 OFFCURVE",
"522 94 OFFCURVE",
"522 109 CURVE SMOOTH",
"522 116 OFFCURVE",
"522 674 OFFCURVE",
"522 685 CURVE SMOOTH",
"522 696 OFFCURVE",
"520 712 OFFCURVE",
"495 712 CURVE SMOOTH",
"460 712 OFFCURVE",
"382 641 OFFCURVE",
"382 611 CURVE"
);
},
{
closed = 1;
nodes = (
"358 523 OFFCURVE",
"179 699 OFFCURVE",
"173 705 CURVE SMOOTH",
"165 713 OFFCURVE",
"157 720 OFFCURVE",
"138 720 CURVE SMOOTH",
"100 720 OFFCURVE",
"40 657 OFFCURVE",
"40 611 CURVE",
"55 626 OFFCURVE",
"102 614 OFFCURVE",
"110 606 CURVE SMOOTH",
"113 603 OFFCURVE",
"364 356 OFFCURVE",
"470 251 CURVE",
"470 305 OFFCURVE",
"470 361 OFFCURVE",
"470 412 CURVE"
);
}
);
width = 600;
}
);
unicode = 004E;
},
{
glyphname = O;
lastChange = "2016-02-25 18:48:52 +0000";
layers = (
{
anchors = (
{
name = circumflex;
position = "{302, 700}";
},
{
name = dieresis;
position = "{301, 700}";
},
{
name = grave;
position = "{387, 700}";
},
{
name = top;
position = "{299, 700}";
}
);
layerId = "BD382907-E334-4565-904D-93E96FA04A02";
name = Regular;
paths = (
{
closed = 1;
nodes = (
"131 725 OFFCURVE",
"63 663 OFFCURVE",
"63 630 CURVE SMOOTH",
"63 609 OFFCURVE",
"72 601 OFFCURVE",
"100 601 CURVE SMOOTH",
"125 601 OFFCURVE",
"338 601 OFFCURVE",
"361 601 CURVE",
"361 700 LINE",
"284 700 OFFCURVE",
"210 700 OFFCURVE",
"197 700 CURVE SMOOTH",
"177 700 OFFCURVE",
"168 711 OFFCURVE",
"168 725 CURVE"
);
},
{
closed = 1;
nodes = (
"59 159 OFFCURVE",
"163 -12 OFFCURVE",
"289 -12 CURVE SMOOTH",
"414 -12 OFFCURVE",
"541 166 OFFCURVE",
"541 361 CURVE SMOOTH",
"541 577 OFFCURVE",
"444 700 OFFCURVE",
"349 700 CURVE SMOOTH",
"252 700 OFFCURVE",
"269 672 OFFCURVE",
"269 652 CURVE SMOOTH",
"269 634 OFFCURVE",
"429 530 OFFCURVE",
"429 298 CURVE SMOOTH",
"429 199 OFFCURVE",
"391 136 OFFCURVE",
"337 136 CURVE SMOOTH",
"283 136 OFFCURVE",
"188 225 OFFCURVE",
"188 364 CURVE SMOOTH",
"188 504 OFFCURVE",
"260 648 OFFCURVE",
"260 648 CURVE SMOOTH",
"195 648 LINE SMOOTH",
"195 648 OFFCURVE",
"59 507 OFFCURVE",
"59 301 CURVE SMOOTH"
);
}
);
width = 600;
}
);
unicode = 004F;
},
{
glyphname = OE;
lastChange = "2016-02-25 18:45:28 +0000";
layers = (
{
layerId = "BD382907-E334-4565-904D-93E96FA04A02";
name = Regular;
paths = (
{
closed = 1;
nodes = (
"59 159 OFFCURVE",
"163 -12 OFFCURVE",
"289 -12 CURVE SMOOTH",
"414 -12 OFFCURVE",
"541 166 OFFCURVE",
"541 361 CURVE SMOOTH",
"541 577 OFFCURVE",
"444 700 OFFCURVE",
"349 700 CURVE SMOOTH",
"252 700 OFFCURVE",
"269 672 OFFCURVE",
"269 652 CURVE SMOOTH",
"269 634 OFFCURVE",
"429 530 OFFCURVE",
"429 298 CURVE SMOOTH",
"429 199 OFFCURVE",
"391 136 OFFCURVE",
"337 136 CURVE SMOOTH",
"283 136 OFFCURVE",
"188 225 OFFCURVE",
"188 364 CURVE SMOOTH",
"188 504 OFFCURVE",
"260 648 OFFCURVE",
"260 648 CURVE SMOOTH",
"195 648 LINE SMOOTH",
"195 648 OFFCURVE",
"59 507 OFFCURVE",
"59 301 CURVE SMOOTH"
);
},
{
closed = 1;
nodes = (
"482 615 OFFCURVE",
"400 562 OFFCURVE",
"400 512 CURVE",
"439 512 OFFCURVE",
"431 481 OFFCURVE",
"431 458 CURVE SMOOTH",
"431 435 OFFCURVE",
"430 107 OFFCURVE",
"430 107 CURVE",
"430 76 OFFCURVE",
"438 68 OFFCURVE",
"447 66 CURVE SMOOTH",
"465 62 OFFCURVE",
"537 156 OFFCURVE",
"541 168 CURVE SMOOTH",
"544 179 OFFCURVE",
"541 365 OFFCURVE",
"541 365 CURVE SMOOTH",
"541 365 OFFCURVE",
"546 365 OFFCURVE",
"618 365 CURVE SMOOTH",
"664 365 OFFCURVE",
"666 343 OFFCURVE",
"666 326 CURVE",
"702 326 OFFCURVE",
"776 387 OFFCURVE",
"776 420 CURVE SMOOTH",
"776 454 OFFCURVE",
"738 450 OFFCURVE",
"738 450 CURVE",
"546 450 LINE",
"546 450 OFFCURVE",
"546 529 OFFCURVE",
"546 554 CURVE SMOOTH",
"546 579 OFFCURVE",
"535 615 OFFCURVE",
"513 615 CURVE SMOOTH"
);
},
{
closed = 1;
nodes = (
"742 0 LINE",
"774 0 OFFCURVE",
"794 1 OFFCURVE",
"794 22 CURVE SMOOTH",
"794 66 OFFCURVE",
"736 118 OFFCURVE",
"688 118 CURVE",
"688 98 OFFCURVE",
"673 88 OFFCURVE",
"626 88 CURVE SMOOTH",
"555 88 OFFCURVE",
"455 90 OFFCURVE",
"437 85 CURVE",
"428 76 OFFCURVE",
"335 10 OFFCURVE",
"337 0 CURVE"
);
},
{
closed = 1;
nodes = (
"472 694 OFFCURVE",
"467 689 OFFCURVE",
"462 682 CURVE",
"455 693 OFFCURVE",
"444 700 OFFCURVE",
"429 700 CURVE",
"207 700 LINE",
"196 700 OFFCURVE",
"184 704 OFFCURVE",
"184 725 CURVE",
"154 725 OFFCURVE",
"83 647 OFFCURVE",
"83 612 CURVE SMOOTH",
"83 592 OFFCURVE",
"99 585 OFFCURVE",
"110 585 CURVE SMOOTH",
"121 585 OFFCURVE",
"685 585 OFFCURVE",
"692 585 CURVE SMOOTH",
"707 585 OFFCURVE",
"711 577 OFFCURVE",
"711 556 CURVE",
"745 556 OFFCURVE",
"813 627 OFFCURVE",
"813 671 CURVE SMOOTH",
"813 700 OFFCURVE",
"797 700 OFFCURVE",
"786 700 CURVE",
"477 700 LINE"
);
}
);
width = 853;
}
);
unicode = 0152;
},
{
glyphname = P;
lastChange = "2016-02-25 18:45:41 +0000";
layers = (
{
layerId = "BD382907-E334-4565-904D-93E96FA04A02";
name = Regular;
paths = (
{
closed = 1;
nodes = (
"148 700 OFFCURVE",
"137 700 OFFCURVE",
"137 726 CURVE",
"126 726 OFFCURVE",
"40 669 OFFCURVE",
"40 636 CURVE SMOOTH",
"40 602 OFFCURVE",
"74 603 OFFCURVE",
"85 603 CURVE",
"264 603 LINE",
"358 603 OFFCURVE",
"378 577 OFFCURVE",
"378 492 CURVE SMOOTH",
"378 413 OFFCURVE",
"340 366 OFFCURVE",
"270 366 CURVE",
"223 366 LINE",
"223 282 LINE",
"310 282 LINE",
"438 282 OFFCURVE",
"488 357 OFFCURVE",
"488 451 CURVE SMOOTH",
"488 477 OFFCURVE",
"488 523 OFFCURVE",
"488 561 CURVE SMOOTH",
"488 655 OFFCURVE",
"426 700 OFFCURVE",
"338 700 CURVE SMOOTH",
"293 700 OFFCURVE",
"179 700 OFFCURVE",
"179 700 CURVE"
);
},
{
closed = 1;
nodes = (
"242 587 OFFCURVE",
"240 603 OFFCURVE",
"215 603 CURVE SMOOTH",
"180 603 OFFCURVE",
"102 532 OFFCURVE",
"102 502 CURVE",
"123 502 OFFCURVE",
"127 490 OFFCURVE",
"127 479 CURVE",
"127 433 OFFCURVE",
"127 114 OFFCURVE",
"127 100 CURVE SMOOTH",
"127 16 OFFCURVE",
"61 -13 OFFCURVE",
"64 -25 CURVE SMOOTH",
"70 -49 OFFCURVE",
"121 -17 OFFCURVE",
"137 -6 CURVE SMOOTH",
"165 16 OFFCURVE",
"242 53 OFFCURVE",
"242 159 CURVE",
"242 576 LINE"
);
}
);
width = 600;
}
);
unicode = 0050;
},
{
glyphname = T;
lastChange = "2016-02-25 18:29:05 +0000";
layers = (
{
layerId = "BD382907-E334-4565-904D-93E96FA04A02";
name = Regular;
paths = (
{
closed = 1;
nodes = (
"326 700 LINE",
"326 99 LINE",
"326 84 OFFCURVE",
"334 70 OFFCURVE",
"355 70 CURVE",
"310 -12 LINE",
"265 -12 OFFCURVE",
"211 19 OFFCURVE",
"211 75 CURVE",
"211 700 LINE"
);
},
{
closed = 1;
nodes = (
"141 704 OFFCURVE",
"153 700 OFFCURVE",
"164 700 CURVE SMOOTH",
"170 700 OFFCURVE",
"477 700 OFFCURVE",
"487 700 CURVE SMOOTH",
"498 700 OFFCURVE",
"514 700 OFFCURVE",
"514 671 CURVE SMOOTH",
"514 627 OFFCURVE",
"446 556 OFFCURVE",
"412 556 CURVE",
"412 577 OFFCURVE",
"408 585 OFFCURVE",
"393 585 CURVE SMOOTH",
"386 585 OFFCURVE",
"78 585 OFFCURVE",
"67 585 CURVE SMOOTH",
"56 585 OFFCURVE",
"40 592 OFFCURVE",
"40 612 CURVE SMOOTH",
"40 647 OFFCURVE",
"111 725 OFFCURVE",
"141 725 CURVE"
);
}
);
width = 554;
}
);
unicode = 0054;
},
{
glyphname = U;
lastChange = "2016-02-27 15:39:59 +0000";
layers = (
{
anchors = (
{
name = circumflex;
position = "{302, 700}";
},
{
name = dieresis;
position = "{301, 700}";
},
{
name = grave;
position = "{387, 700}";
},
{
name = top;
position = "{299, 700}";
}
);
layerId = "BD382907-E334-4565-904D-93E96FA04A02";
name = Regular;
paths = (
{
closed = 1;
nodes = (
"403 611 OFFCURVE",
"407 599 OFFCURVE",
"407 588 CURVE SMOOTH",
"407 582 OFFCURVE",
"407 25 OFFCURVE",
"407 15 CURVE SMOOTH",
"407 4 OFFCURVE",
"407 -12 OFFCURVE",
"436 -12 CURVE SMOOTH",
"480 -12 OFFCURVE",
"551 56 OFFCURVE",
"551 90 CURVE",
"530 90 OFFCURVE",
"522 94 OFFCURVE",
"522 109 CURVE SMOOTH",
"522 116 OFFCURVE",
"522 674 OFFCURVE",
"522 685 CURVE SMOOTH",
"522 696 OFFCURVE",
"520 712 OFFCURVE",
"495 712 CURVE SMOOTH",
"460 712 OFFCURVE",
"382 641 OFFCURVE",
"382 611 CURVE"
);
},
{
closed = 1;
nodes = (
"180 696 OFFCURVE",
"178 712 OFFCURVE",
"153 712 CURVE SMOOTH",
"118 712 OFFCURVE",
"40 641 OFFCURVE",
"40 611 CURVE",
"61 611 OFFCURVE",
"65 599 OFFCURVE",
"65 588 CURVE",
"65 575 OFFCURVE",
"65 124 OFFCURVE",
"65 87 CURVE SMOOTH",
"65 49 OFFCURVE",
"73 -12 OFFCURVE",
"129 -12 CURVE SMOOTH",
"169 -12 OFFCURVE",
"206 3 OFFCURVE",
"246 38 CURVE SMOOTH",
"307 89 OFFCURVE",
"362 130 OFFCURVE",
"424 130 CURVE",
"424 244 LINE",
"365 198 OFFCURVE",
"267 142 OFFCURVE",
"219 142 CURVE SMOOTH",
"190 142 OFFCURVE",
"180 156 OFFCURVE",
"180 191 CURVE SMOOTH",
"180 221 OFFCURVE",
"180 660 OFFCURVE",
"180 685 CURVE"
);
}
);
width = 600;
}
);
unicode = 0055;
},
{
glyphname = V;
lastChange = "2016-02-27 16:01:05 +0000";
layers = (
{
layerId = "BD382907-E334-4565-904D-93E96FA04A02";
name = Regular;
paths = (
{
closed = 1;
nodes = (
"64 465 OFFCURVE",
"64 179 OFFCURVE",
"64 156 CURVE SMOOTH",
"64 94 OFFCURVE",
"58 -13 OFFCURVE",
"150 -13 CURVE SMOOTH",
"287 -13 OFFCURVE",
"381 176 OFFCURVE",
"424 271 CURVE SMOOTH",
"468 366 OFFCURVE",
"477 452 OFFCURVE",
"477 488 CURVE",
"477 540 LINE",
"477 639 OFFCURVE",
"429 700 OFFCURVE",
"328 700 CURVE",
"271 700 LINE",
"271 700 OFFCURVE",
"131 635 OFFCURVE",
"131 606 CURVE",
"271 606 LINE",
"307 606 OFFCURVE",
"337 588 OFFCURVE",
"337 552 CURVE SMOOTH",
"337 500 OFFCURVE",
"337 381 OFFCURVE",
"337 342 CURVE SMOOTH",
"337 214 OFFCURVE",
"287 90 OFFCURVE",
"236 90 CURVE SMOOTH",
"212 90 OFFCURVE",
"183 102 OFFCURVE",
"183 171 CURVE",
"183 614 LINE",
"183 660 OFFCURVE",
"169 712 OFFCURVE",
"146 712 CURVE SMOOTH",
"105 712 OFFCURVE",
"39 638 OFFCURVE",
"39 617 CURVE",
"52 617 OFFCURVE",
"64 611 OFFCURVE",
"64 577 CURVE"
);
}
);
width = 512;
}
);
unicode = 0056;
},
{
glyphname = W;
lastChange = "2016-02-27 16:02:03 +0000";
layers = (
{
background = {
paths = (
{
closed = 1;
nodes = (
"369 465 OFFCURVE",
"369 179 OFFCURVE",
"369 156 CURVE SMOOTH",
"369 94 OFFCURVE",
"363 -13 OFFCURVE",
"455 -13 CURVE SMOOTH",
"592 -13 OFFCURVE",
"686 176 OFFCURVE",
"729 271 CURVE SMOOTH",
"773 366 OFFCURVE",
"782 452 OFFCURVE",
"782 488 CURVE",
"782 540 LINE",
"782 639 OFFCURVE",
"734 700 OFFCURVE",
"633 700 CURVE",
"576 700 LINE",
"576 700 OFFCURVE",
"436 635 OFFCURVE",
"436 606 CURVE",
"576 606 LINE",
"612 606 OFFCURVE",
"642 588 OFFCURVE",
"642 552 CURVE SMOOTH",
"642 500 OFFCURVE",
"642 381 OFFCURVE",
"642 342 CURVE SMOOTH",
"642 214 OFFCURVE",
"592 90 OFFCURVE",
"541 90 CURVE SMOOTH",
"517 90 OFFCURVE",
"488 102 OFFCURVE",
"488 171 CURVE",
"488 614 LINE",
"488 660 OFFCURVE",
"474 712 OFFCURVE",
"451 712 CURVE SMOOTH",
"410 712 OFFCURVE",
"344 638 OFFCURVE",
"344 617 CURVE",
"357 617 OFFCURVE",
"369 611 OFFCURVE",
"369 577 CURVE"
);
}
);
};
layerId = "BD382907-E334-4565-904D-93E96FA04A02";
name = Regular;
paths = (
{
closed = 1;
nodes = (
"35 618 OFFCURVE",
"46 606 OFFCURVE",
"65 606 CURVE SMOOTH",
"84 606 OFFCURVE",
"274 606 OFFCURVE",
"317 606 CURVE SMOOTH",
"352 606 OFFCURVE",
"369 591 OFFCURVE",
"369 564 CURVE SMOOTH",
"369 547 OFFCURVE",
"369 187 OFFCURVE",
"369 156 CURVE SMOOTH",
"369 94 OFFCURVE",
"363 -13 OFFCURVE",
"455 -13 CURVE SMOOTH",
"592 -13 OFFCURVE",
"686 176 OFFCURVE",
"729 271 CURVE SMOOTH",
"773 366 OFFCURVE",
"782 452 OFFCURVE",
"782 488 CURVE",
"782 540 LINE",
"782 639 OFFCURVE",
"714 700 OFFCURVE",
"613 700 CURVE SMOOTH",
"571 700 OFFCURVE",
"167 700 OFFCURVE",
"167 700 CURVE",
"151 700 OFFCURVE",
"137 707 OFFCURVE",
"137 722 CURVE",
"112 722 OFFCURVE",
"35 669 OFFCURVE",
"35 636 CURVE SMOOTH"
);
},
{
closed = 1;
nodes = (
"612 607 OFFCURVE",
"642 588 OFFCURVE",
"642 552 CURVE SMOOTH",
"642 521 OFFCURVE",
"642 376 OFFCURVE",
"642 342 CURVE SMOOTH",
"642 214 OFFCURVE",
"592 90 OFFCURVE",
"541 90 CURVE SMOOTH",
"517 90 OFFCURVE",
"488 102 OFFCURVE",
"488 171 CURVE",
"488 607 LINE",
"576 607 LINE"
);
},
{
closed = 1;
nodes = (
"165 606 OFFCURVE",
"103 532 OFFCURVE",
"103 511 CURVE",
"116 511 OFFCURVE",
"129 505 OFFCURVE",
"129 471 CURVE SMOOTH",
"129 401 OFFCURVE",
"129 114 OFFCURVE",
"129 85 CURVE SMOOTH",
"129 57 OFFCURVE",
"133 -13 OFFCURVE",
"217 -13 CURVE SMOOTH",
"301 -13 OFFCURVE",
"378 65 OFFCURVE",
"385 75 CURVE SMOOTH",
"389 84 OFFCURVE",
"378 113 OFFCURVE",
"378 113 CURVE SMOOTH",
"378 113 OFFCURVE",
"366 99 OFFCURVE",
"356 93 CURVE SMOOTH",
"346 85 OFFCURVE",
"319 69 OFFCURVE",
"292 69 CURVE SMOOTH",
"254 69 OFFCURVE",
"240 77 OFFCURVE",
"240 123 CURVE",
"240 123 OFFCURVE",
"240 507 OFFCURVE",
"240 535 CURVE SMOOTH",
"240 571 OFFCURVE",
"229 606 OFFCURVE",
"206 606 CURVE SMOOTH"
);
},
{
closed = 1;
nodes = (
"165 606 OFFCURVE",
"103 532 OFFCURVE",
"103 511 CURVE",
"116 511 OFFCURVE",
"129 505 OFFCURVE",
"129 471 CURVE SMOOTH",
"129 401 OFFCURVE",
"129 114 OFFCURVE",
"129 85 CURVE SMOOTH",
"129 57 OFFCURVE",
"133 -13 OFFCURVE",
"217 -13 CURVE SMOOTH",
"301 -13 OFFCURVE",
"378 65 OFFCURVE",
"385 75 CURVE SMOOTH",
"389 84 OFFCURVE",
"378 113 OFFCURVE",
"378 113 CURVE SMOOTH",
"378 113 OFFCURVE",
"366 99 OFFCURVE",
"356 93 CURVE SMOOTH",
"346 85 OFFCURVE",
"319 69 OFFCURVE",
"292 69 CURVE SMOOTH",
"254 69 OFFCURVE",
"240 77 OFFCURVE",
"240 123 CURVE",
"240 123 OFFCURVE",
"240 507 OFFCURVE",
"240 535 CURVE SMOOTH",
"240 571 OFFCURVE",
"229 606 OFFCURVE",
"206 606 CURVE SMOOTH"
);
}
);
width = 817;
}
);
unicode = 0057;
},
{
glyphname = Z;
lastChange = "2016-02-25 18:50:50 +0000";
layers = (
{
anchors = (
{
name = dotaccent;
position = "{280, 700}";
}
);
layerId = "BD382907-E334-4565-904D-93E96FA04A02";
name = Regular;
paths = (
{
closed = 1;
nodes = (
"453 93 OFFCURVE",
"280 93 OFFCURVE",
"262 93 CURVE SMOOTH",
"231 93 OFFCURVE",
"225 137 OFFCURVE",
"239 165 CURVE",
"249 183 OFFCURVE",
"486 623 OFFCURVE",
"493 638 CURVE",
"500 652 OFFCURVE",
"528 700 OFFCURVE",
"481 700 CURVE",
"103 700 LINE",
"103 700 OFFCURVE",
"67 648 OFFCURVE",
"62 640 CURVE SMOOTH",
"50 622 OFFCURVE",
"47 601 OFFCURVE",
"71 601 CURVE",
"92 601 OFFCURVE",
"274 601 OFFCURVE",
"298 601 CURVE SMOOTH",
"332 601 OFFCURVE",
"336 570 OFFCURVE",
"320 537 CURVE",
"311 521 OFFCURVE",
"80 123 OFFCURVE",
"62 92 CURVE SMOOTH",
"43 59 OFFCURVE",
"16 0 OFFCURVE",
"80 0 CURVE",
"428 0 LINE",
"428 0 OFFCURVE",
"472 49 OFFCURVE",
"477 57 CURVE SMOOTH",
"483 65 OFFCURVE",
"498 93 OFFCURVE",
"467 93 CURVE"
);
}
);
width = 548;
}
);
unicode = 005A;
},
{
glyphname = a;
lastChange = "2016-02-25 19:10:41 +0000";
layers = (
{
anchors = (
{
name = dieresis;
position = "{217, 500}";
},
{
name = ogonek;
position = "{297, -3}";
},
{
name = ring;
position = "{217, 510}";
},
{
name = top;
position = "{241, 500}";
}
);
layerId = "BD382907-E334-4565-904D-93E96FA04A02";
name = Regular;
paths = (
{
closed = 1;
nodes = (
"384 84 OFFCURVE",
"372 84 OFFCURVE",
"372 101 CURVE",
"372 430 LINE",
"372 458 OFFCURVE",
"361 500 OFFCURVE",
"325 500 CURVE SMOOTH",
"285 500 OFFCURVE",
"178 500 OFFCURVE",
"155 500 CURVE SMOOTH",
"138 500 OFFCURVE",
"122 492 OFFCURVE",
"108 477 CURVE SMOOTH",
"96 464 OFFCURVE",
"45 398 OFFCURVE",
"37 386 CURVE SMOOTH",
"34 381 OFFCURVE",
"34 378 OFFCURVE",
"39 374 CURVE SMOOTH",
"39 374 OFFCURVE",
"54 363 OFFCURVE",
"54 363 CURVE SMOOTH",
"58 360 OFFCURVE",
"63 360 OFFCURVE",
"66 363 CURVE SMOOTH",
"88 385 OFFCURVE",
"106 404 OFFCURVE",
"125 404 CURVE SMOOTH",
"142 404 OFFCURVE",
"230 404 OFFCURVE",
"242 404 CURVE SMOOTH",
"255 404 OFFCURVE",
"266 399 OFFCURVE",
"266 387 CURVE SMOOTH",
"266 374 OFFCURVE",
"266 36 OFFCURVE",
"266 24 CURVE SMOOTH",
"266 7 OFFCURVE",
"266 -12 OFFCURVE",
"289 -12 CURVE SMOOTH",
"312 -12 OFFCURVE",
"397 48 OFFCURVE",
"397 84 CURVE"
);
},
{
closed = 1;
nodes = (
"266 122 LINE",
"224 86 OFFCURVE",
"197 72 OFFCURVE",
"172 72 CURVE SMOOTH",
"155 72 OFFCURVE",
"142 84 OFFCURVE",
"142 108 CURVE SMOOTH",
"142 125 OFFCURVE",
"142 174 OFFCURVE",
"142 197 CURVE SMOOTH",
"142 228 OFFCURVE",
"162 243 OFFCURVE",
"178 251 CURVE SMOOTH",
"178 251 OFFCURVE",
"249 298 OFFCURVE",
"249 298 CURVE SMOOTH",
"260 303 OFFCURVE",
"266 299 OFFCURVE",
"266 287 CURVE SMOOTH",
"266 257 OFFCURVE",
"266 365 OFFCURVE",
"266 365 CURVE SMOOTH",
"266 365 OFFCURVE",
"125 291 OFFCURVE",
"85 268 CURVE SMOOTH",
"48 251 OFFCURVE",
"35 214 OFFCURVE",
"35 191 CURVE SMOOTH",
"35 167 OFFCURVE",
"35 78 OFFCURVE",
"35 48 CURVE SMOOTH",
"35 24 OFFCURVE",
"48 -12 OFFCURVE",
"108 -12 CURVE SMOOTH",
"168 -12 OFFCURVE",
"249 61 OFFCURVE",
"255 65 CURVE SMOOTH",
"262 69 OFFCURVE",
"266 67 OFFCURVE",
"266 59 CURVE"
);
}
);
width = 432;
}
);
leftMetricsKey = n;
rightMetricsKey = n;
unicode = 0061;
},
{
glyphname = ae;
lastChange = "2016-02-25 12:14:36 +0000";
layers = (
{
layerId = "BD382907-E334-4565-904D-93E96FA04A02";
name = Regular;
paths = (
{
closed = 1;
nodes = (
"362 430 LINE",
"362 458 OFFCURVE",
"351 500 OFFCURVE",
"315 500 CURVE SMOOTH",
"275 500 OFFCURVE",
"178 500 OFFCURVE",
"155 500 CURVE SMOOTH",
"138 500 OFFCURVE",
"122 492 OFFCURVE",
"108 477 CURVE SMOOTH",
"96 464 OFFCURVE",
"45 398 OFFCURVE",
"37 386 CURVE SMOOTH",
"34 381 OFFCURVE",
"34 378 OFFCURVE",
"39 374 CURVE SMOOTH",
"39 374 OFFCURVE",
"54 363 OFFCURVE",
"54 363 CURVE SMOOTH",
"58 360 OFFCURVE",
"63 360 OFFCURVE",
"66 363 CURVE SMOOTH",
"88 385 OFFCURVE",
"106 404 OFFCURVE",
"125 404 CURVE SMOOTH",
"142 404 OFFCURVE",
"230 404 OFFCURVE",
"242 404 CURVE SMOOTH",
"255 404 OFFCURVE",
"266 399 OFFCURVE",
"266 387 CURVE SMOOTH",
"266 374 OFFCURVE",
"266 262 OFFCURVE",
"266 250 CURVE"
);
},
{
closed = 1;
nodes = (
"455 166 OFFCURVE",
"619 298 OFFCURVE",
"619 438 CURVE SMOOTH",
"619 485 OFFCURVE",
"607 500 OFFCURVE",
"574 500 CURVE SMOOTH",
"540 500 OFFCURVE",
"363 500 OFFCURVE",
"363 500 CURVE",
"321 452 OFFCURVE",
"266 368 OFFCURVE",
"266 250 CURVE SMOOTH",
"266 115 OFFCURVE",
"345 -12 OFFCURVE",
"449 -12 CURVE SMOOTH",
"516 -12 OFFCURVE",
"600 98 OFFCURVE",
"600 130 CURVE SMOOTH",
"600 143 OFFCURVE",
"597 147 OFFCURVE",
"588 147 CURVE SMOOTH",
"573 147 OFFCURVE",
"554 100 OFFCURVE",
"506 100 CURVE SMOOTH",
"417 100 OFFCURVE",
"353 213 OFFCURVE",
"353 311 CURVE SMOOTH",
"353 409 OFFCURVE",
"404 444 OFFCURVE",
"404 444 CURVE",
"353 409 LINE",
"381 409 OFFCURVE",
"450 409 OFFCURVE",
"467 409 CURVE SMOOTH",
"484 409 OFFCURVE",
"497 398 OFFCURVE",
"497 369 CURVE SMOOTH",
"497 284 OFFCURVE",
"423 215 OFFCURVE",
"333 148 CURVE SMOOTH",
"286 113 OFFCURVE",
"242 72 OFFCURVE",
"172 72 CURVE SMOOTH",
"155 72 OFFCURVE",
"142 84 OFFCURVE",
"142 108 CURVE SMOOTH",
"142 125 OFFCURVE",
"142 174 OFFCURVE",
"142 197 CURVE SMOOTH",
"142 228 OFFCURVE",
"162 243 OFFCURVE",
"178 251 CURVE SMOOTH",
"178 251 OFFCURVE",
"249 298 OFFCURVE",
"249 298 CURVE SMOOTH",
"260 303 OFFCURVE",
"266 299 OFFCURVE",
"266 287 CURVE SMOOTH",
"266 257 OFFCURVE",
"266 365 OFFCURVE",
"266 365 CURVE SMOOTH",
"266 365 OFFCURVE",
"125 291 OFFCURVE",
"85 268 CURVE SMOOTH",
"48 251 OFFCURVE",
"35 214 OFFCURVE",
"35 191 CURVE SMOOTH",
"35 167 OFFCURVE",
"35 78 OFFCURVE",
"35 48 CURVE SMOOTH",
"35 24 OFFCURVE",
"48 -12 OFFCURVE",
"108 -12 CURVE SMOOTH",
"230 -12 OFFCURVE",
"315 83 OFFCURVE",
"374 118 CURVE SMOOTH"
);
}
);
width = 654;
}
);
unicode = 00E6;
},
{
glyphname = b;
lastChange = "2016-02-25 19:10:45 +0000";
layers = (
{
layerId = "BD382907-E334-4565-904D-93E96FA04A02";
name = Regular;
paths = (
{
closed = 1;
nodes = (
"172 471 OFFCURVE",
"247 500 OFFCURVE",
"253 500 CURVE",
"336 500 LINE",
"359 500 OFFCURVE",
"380 491 OFFCURVE",
"397 471 CURVE SMOOTH",
"416 452 OFFCURVE",
"421 435 OFFCURVE",
"421 406 CURVE SMOOTH",
"421 375 OFFCURVE",
"430 274 OFFCURVE",
"380 171 CURVE SMOOTH",
"330 68 OFFCURVE",
"250 -7 OFFCURVE",
"151 -7 CURVE SMOOTH",
"51 -7 OFFCURVE",
"65 71 OFFCURVE",
"65 124 CURVE SMOOTH",
"65 177 OFFCURVE",
"65 470 OFFCURVE",
"65 521 CURVE SMOOTH",
"65 552 OFFCURVE",
"55 560 OFFCURVE",
"35 560 CURVE",
"36 584 OFFCURVE",
"101 651 OFFCURVE",
"132 651 CURVE SMOOTH",
"168 651 OFFCURVE",
"163 591 OFFCURVE",
"163 561 CURVE SMOOTH",
"163 532 OFFCURVE",
"163 179 OFFCURVE",
"163 136 CURVE SMOOTH",
"163 91 OFFCURVE",
"170 69 OFFCURVE",
"195 69 CURVE SMOOTH",
"222 69 OFFCURVE",
"316 121 OFFCURVE",
"316 291 CURVE SMOOTH",
"316 397 OFFCURVE",
"289 426 OFFCURVE",
"242 426 CURVE",
"156 426 LINE"
);
}
);
width = 457;
}
);
leftMetricsKey = n;
rightMetricsKey = n;
unicode = 0062;
},
{
glyphname = c;
lastChange = "2016-02-25 19:11:47 +0000";
layers = (
{
anchors = (
{
name = cedilla;
position = "{181, 0}";
},
{
name = top;
position = "{229, 500}";
}
);
layerId = "BD382907-E334-4565-904D-93E96FA04A02";
name = Regular;
paths = (
{
closed = 1;
nodes = (
"90 451 OFFCURVE",
"35 369 OFFCURVE",
"35 250 CURVE SMOOTH",
"35 116 OFFCURVE",
"114 -12 OFFCURVE",
"218 -12 CURVE SMOOTH",
"285 -12 OFFCURVE",
"369 98 OFFCURVE",
"369 131 CURVE SMOOTH",
"369 143 OFFCURVE",
"367 147 OFFCURVE",
"358 147 CURVE SMOOTH",
"343 147 OFFCURVE",
"324 100 OFFCURVE",
"277 100 CURVE SMOOTH",
"187 100 OFFCURVE",
"123 214 OFFCURVE",
"123 312 CURVE SMOOTH",
"123 410 OFFCURVE",
"182 470 OFFCURVE",
"220 500 CURVE",
"132 500 LINE"
);
},
{
closed = 1;
nodes = (
"301 385 OFFCURVE",
"367 440 OFFCURVE",
"367 471 CURVE SMOOTH",
"367 492 OFFCURVE",
"358 500 OFFCURVE",
"332 500 CURVE SMOOTH",
"307 500 OFFCURVE",
"154 500 OFFCURVE",
"132 500 CURVE",
"132 409 LINE",
"206 409 OFFCURVE",
"225 409 OFFCURVE",
"237 409 CURVE SMOOTH",
"257 409 OFFCURVE",
"266 398 OFFCURVE",
"266 385 CURVE"
);
}
);
width = 404;
}
);
leftMetricsKey = n;
rightMetricsKey = n;
unicode = 0063;
},
{
glyphname = d;
lastChange = "2016-02-25 19:10:34 +0000";
layers = (
{
layerId = "BD382907-E334-4565-904D-93E96FA04A02";
name = Regular;
paths = (
{
closed = 1;
nodes = (
"90 451 OFFCURVE",
"35 369 OFFCURVE",
"35 250 CURVE SMOOTH",
"35 116 OFFCURVE",
"114 -12 OFFCURVE",
"218 -12 CURVE SMOOTH",
"285 -12 OFFCURVE",
"369 98 OFFCURVE",
"369 131 CURVE SMOOTH",
"369 143 OFFCURVE",
"367 147 OFFCURVE",
"358 147 CURVE SMOOTH",
"343 147 OFFCURVE",
"324 100 OFFCURVE",
"277 100 CURVE SMOOTH",
"187 100 OFFCURVE",
"123 214 OFFCURVE",
"123 312 CURVE SMOOTH",
"123 410 OFFCURVE",
"182 470 OFFCURVE",
"220 500 CURVE",
"132 500 LINE"
);
},
{
closed = 1;
nodes = (
"311 426 LINE",
"325 500 LINE",
"300 500 OFFCURVE",
"154 500 OFFCURVE",
"132 500 CURVE",
"132 426 LINE"
);
},
{
closed = 1;
nodes = (
"400 591 OFFCURVE",
"405 651 OFFCURVE",
"369 651 CURVE SMOOTH",
"338 651 OFFCURVE",
"273 584 OFFCURVE",
"272 560 CURVE",
"292 560 OFFCURVE",
"302 552 OFFCURVE",
"302 521 CURVE",
"302 492 OFFCURVE",
"302 209 OFFCURVE",
"302 166 CURVE SMOOTH",
"302 121 OFFCURVE",
"303 99 OFFCURVE",
"270 99 CURVE",
"218 -12 LINE",
"285 -12 OFFCURVE",
"400 103 OFFCURVE",
"400 224 CURVE SMOOTH",
"400 277 OFFCURVE",
"400 510 OFFCURVE",
"400 561 CURVE"
);
}
);
width = 435;
}
);
leftMetricsKey = n;
rightMetricsKey = n;
unicode = 0064;
},
{
glyphname = e;
lastChange = "2016-02-25 19:11:08 +0000";
layers = (
{
anchors = (
{
name = ogonek;
position = "{243, 0}";
},
{
name = top;
position = "{256, 500}";
}
);
layerId = "BD382907-E334-4565-904D-93E96FA04A02";
name = Regular;
paths = (
{
closed = 1;
nodes = (
"150 409 OFFCURVE",
"219 409 OFFCURVE",
"236 409 CURVE SMOOTH",
"253 409 OFFCURVE",
"266 398 OFFCURVE",
"266 369 CURVE SMOOTH",
"266 284 OFFCURVE",
"212 224 OFFCURVE",
"122 158 CURVE SMOOTH",
"122 158 OFFCURVE",
"163 128 OFFCURVE",
"163 128 CURVE SMOOTH",
"245 177 OFFCURVE",
"388 298 OFFCURVE",
"388 438 CURVE SMOOTH",
"388 485 OFFCURVE",
"376 500 OFFCURVE",
"343 500 CURVE SMOOTH",
"309 500 OFFCURVE",
"132 500 OFFCURVE",
"132 500 CURVE",
"90 452 OFFCURVE",
"35 368 OFFCURVE",
"35 250 CURVE SMOOTH",
"35 115 OFFCURVE",
"114 -12 OFFCURVE",
"218 -12 CURVE SMOOTH",
"285 -12 OFFCURVE",
"369 98 OFFCURVE",
"369 130 CURVE SMOOTH",
"369 143 OFFCURVE",
"366 147 OFFCURVE",
"357 147 CURVE SMOOTH",
"342 147 OFFCURVE",
"323 100 OFFCURVE",
"275 100 CURVE SMOOTH",
"186 100 OFFCURVE",
"122 213 OFFCURVE",
"122 311 CURVE SMOOTH",
"122 409 OFFCURVE",
"173 444 OFFCURVE",
"173 444 CURVE",
"122 409 LINE"
);
}
);
width = 423;
}
);
leftMetricsKey = n;
rightMetricsKey = n;
unicode = 0065;
},
{
glyphname = f;
lastChange = "2016-02-25 19:10:22 +0000";
layers = (
{
layerId = "BD382907-E334-4565-904D-93E96FA04A02";
name = Regular;
paths = (
{
closed = 1;
nodes = (
"285 700 OFFCURVE",
"289 696 OFFCURVE",
"289 680 CURVE SMOOTH",
"289 663 OFFCURVE",
"236 598 OFFCURVE",
"208 598 CURVE",
"208 606 OFFCURVE",
"216 627 OFFCURVE",
"151 627 CURVE SMOOTH",
"145 627 OFFCURVE",
"137 629 OFFCURVE",
"137 594 CURVE SMOOTH",
"137 556 OFFCURVE",
"137 524 OFFCURVE",
"137 524 CURVE",
"171 524 OFFCURVE",
"205 524 OFFCURVE",
"239 524 CURVE",
"239 498 OFFCURVE",
"223 453 OFFCURVE",
"190 453 CURVE SMOOTH",
"160 453 OFFCURVE",
"139 453 OFFCURVE",
"139 453 CURVE",
"139 -59 LINE",
"139 -59 OFFCURVE",
"108 -157 OFFCURVE",
"41 -157 CURVE",
"41 -55 OFFCURVE",
"35 474 OFFCURVE",
"35 537 CURVE SMOOTH",
"35 600 OFFCURVE",
"119 700 OFFCURVE",
"151 700 CURVE SMOOTH",
"177 700 OFFCURVE",
"224 700 OFFCURVE",
"224 700 CURVE"
);
}
);
width = 204;
}
);
leftMetricsKey = n;
unicode = 0066;
},
{
glyphname = g;
lastChange = "2016-02-25 19:12:28 +0000";
layers = (
{
layerId = "BD382907-E334-4565-904D-93E96FA04A02";
name = Regular;
paths = (
{
closed = 1;
nodes = (
"223 500 OFFCURVE",
"398 500 OFFCURVE",
"398 500 CURVE SMOOTH",
"398 500 OFFCURVE",
"437 500 OFFCURVE",
"437 491 CURVE SMOOTH",
"437 481 OFFCURVE",
"422 458 OFFCURVE",
"404 435 CURVE",
"357 416 LINE",
"348 409 OFFCURVE",
"346 409 OFFCURVE",
"318 409 CURVE",
"161 409 LINE",
"152 383 OFFCURVE",
"131 323 OFFCURVE",
"131 268 CURVE SMOOTH",
"131 194 OFFCURVE",
"166 89 OFFCURVE",
"236 89 CURVE SMOOTH",
"304 89 OFFCURVE",
"327 177 OFFCURVE",
"339 187 CURVE",
"339 59 LINE",
"339 59 OFFCURVE",
"326 77 OFFCURVE",
"306 62 CURVE SMOOTH",
"282 44 OFFCURVE",
"247 -12 OFFCURVE",
"186 -12 CURVE SMOOTH",
"125 -12 OFFCURVE",
"35 75 OFFCURVE",
"35 196 CURVE SMOOTH",
"35 351 OFFCURVE",
"107 430 OFFCURVE",
"168 500 CURVE"
);
},
{
closed = 1;
nodes = (
"439 -33 OFFCURVE",
"437 -47 OFFCURVE",
"426 -63 CURVE",
"333 -161 LINE SMOOTH",
"318 -175 OFFCURVE",
"314 -176 OFFCURVE",
"300 -176 CURVE",
"300 -176 OFFCURVE",
"111 -176 OFFCURVE",
"85 -176 CURVE SMOOTH",
"61 -176 OFFCURVE",
"37 -163 OFFCURVE",
"37 -137 CURVE SMOOTH",
"37 -105 OFFCURVE",
"85 -51 OFFCURVE",
"122 -51 CURVE",
"122 -59 OFFCURVE",
"104 -80 OFFCURVE",
"153 -80 CURVE SMOOTH",
"197 -80 OFFCURVE",
"289 -80 OFFCURVE",
"303 -80 CURVE SMOOTH",
"314 -80 OFFCURVE",
"347 -67 OFFCURVE",
"347 -38 CURVE SMOOTH",
"347 -19 OFFCURVE",
"342 -3 OFFCURVE",
"334 5 CURVE SMOOTH",
"325 14 OFFCURVE",
"313 38 OFFCURVE",
"313 65 CURVE SMOOTH",
"313 93 OFFCURVE",
"313 353 OFFCURVE",
"313 353 CURVE",
"324 377 OFFCURVE",
"373 451 OFFCURVE",
"434 483 CURVE",
"434 483 OFFCURVE",
"413 432 OFFCURVE",
"413 386 CURVE",
"413 102 LINE",
"413 67 OFFCURVE",
"439 28 OFFCURVE",
"439 -14 CURVE"
);
}
);
width = 474;
}
);
leftMetricsKey = n;
rightMetricsKey = n;
unicode = 0067;
},
{
glyphname = h;
lastChange = "2016-02-15 18:05:55 +0000";
layers = (
{
layerId = "BD382907-E334-4565-904D-93E96FA04A02";
name = Regular;
paths = (
{
closed = 1;
nodes = (
"56 611 OFFCURVE",
"60 599 OFFCURVE",
"60 588 CURVE SMOOTH",
"60 582 OFFCURVE",
"60 25 OFFCURVE",
"60 15 CURVE SMOOTH",
"60 4 OFFCURVE",
"60 -12 OFFCURVE",
"89 -12 CURVE SMOOTH",
"133 -12 OFFCURVE",
"204 56 OFFCURVE",
"204 90 CURVE",
"183 90 OFFCURVE",
"175 94 OFFCURVE",
"175 109 CURVE SMOOTH",
"175 116 OFFCURVE",
"175 674 OFFCURVE",
"175 685 CURVE SMOOTH",
"175 696 OFFCURVE",
"173 712 OFFCURVE",
"148 712 CURVE SMOOTH",
"113 712 OFFCURVE",
"35 641 OFFCURVE",
"35 611 CURVE"
);
},
{
closed = 1;
nodes = (
"408 468 OFFCURVE",
"387 512 OFFCURVE",
"340 512 CURVE SMOOTH",
"311 512 OFFCURVE",
"277 501 OFFCURVE",
"248 476 CURVE SMOOTH",
"204 439 OFFCURVE",
"164 409 OFFCURVE",
"119 409 CURVE",
"119 326 LINE",
"162 360 OFFCURVE",
"233 400 OFFCURVE",
"268 400 CURVE SMOOTH",
"289 400 OFFCURVE",
"296 390 OFFCURVE",
"296 365 CURVE",
"296 340 OFFCURVE",
"296 51 OFFCURVE",
"296 8 CURVE SMOOTH",
"296 -35 OFFCURVE",
"260 -106 OFFCURVE",
"210 -127 CURVE SMOOTH",
"203 -130 OFFCURVE",
"199 -134 OFFCURVE",
"201 -139 CURVE SMOOTH",
"205 -148 OFFCURVE",
"205 -148 OFFCURVE",
"207 -153 CURVE SMOOTH",
"210 -159 OFFCURVE",
"215 -160 OFFCURVE",
"220 -158 CURVE SMOOTH",
"233 -153 OFFCURVE",
"408 -85 OFFCURVE",
"408 63 CURVE",
"408 440 LINE"
);
}
);
width = 443;
}
);
unicode = 0068;
},
{
glyphname = i;
lastChange = "2016-02-25 12:36:13 +0000";
layers = (
{
layerId = "BD382907-E334-4565-904D-93E96FA04A02";
name = Regular;
paths = (
{
closed = 1;
nodes = (
"56 411 OFFCURVE",
"60 399 OFFCURVE",
"60 388 CURVE SMOOTH",
"60 382 OFFCURVE",
"60 25 OFFCURVE",
"60 15 CURVE SMOOTH",
"60 4 OFFCURVE",
"60 -12 OFFCURVE",
"89 -12 CURVE SMOOTH",
"133 -12 OFFCURVE",
"204 56 OFFCURVE",
"204 90 CURVE",
"183 90 OFFCURVE",
"175 94 OFFCURVE",
"175 109 CURVE SMOOTH",
"175 116 OFFCURVE",
"175 474 OFFCURVE",
"175 485 CURVE SMOOTH",
"175 496 OFFCURVE",
"173 512 OFFCURVE",
"148 512 CURVE SMOOTH",
"113 512 OFFCURVE",
"35 441 OFFCURVE",
"35 411 CURVE"
);
},
{
closed = 1;
nodes = (
"170 576 OFFCURVE",
"145 551 OFFCURVE",
"113 551 CURVE SMOOTH",
"75 551 OFFCURVE",
"50 576 OFFCURVE",
"50 608 CURVE SMOOTH",
"50 647 OFFCURVE",
"75 671 OFFCURVE",
"113 671 CURVE SMOOTH",
"145 671 OFFCURVE",
"170 647 OFFCURVE",
"170 608 CURVE SMOOTH"
);
}
);
width = 239;
}
);
leftMetricsKey = n;
rightMetricsKey = n;
unicode = 0069;
},
{
glyphname = idotless;
lastChange = "2016-02-25 18:53:05 +0000";
layers = (
{
anchors = (
{
name = circumflex;
position = "{130, 500}";
},
{
name = dieresis;
position = "{129, 500}";
},
{
name = grave;
position = "{215, 500}";
},
{
name = top;
position = "{127, 500}";
}
);
layerId = "BD382907-E334-4565-904D-93E96FA04A02";
name = Regular;
paths = (
{
closed = 1;
nodes = (
"56 411 OFFCURVE",
"60 399 OFFCURVE",
"60 388 CURVE SMOOTH",
"60 382 OFFCURVE",
"60 25 OFFCURVE",
"60 15 CURVE SMOOTH",
"60 4 OFFCURVE",
"60 -12 OFFCURVE",
"89 -12 CURVE SMOOTH",
"133 -12 OFFCURVE",
"204 56 OFFCURVE",
"204 90 CURVE",
"183 90 OFFCURVE",
"175 94 OFFCURVE",
"175 109 CURVE SMOOTH",
"175 116 OFFCURVE",
"175 474 OFFCURVE",
"175 485 CURVE SMOOTH",
"175 496 OFFCURVE",
"173 512 OFFCURVE",
"148 512 CURVE SMOOTH",
"113 512 OFFCURVE",
"35 441 OFFCURVE",
"35 411 CURVE"
);
}
);
width = 239;
}
);
unicode = 0131;
},
{
glyphname = j;
lastChange = "2016-02-25 18:47:09 +0000";
layers = (
{
layerId = "BD382907-E334-4565-904D-93E96FA04A02";
name = Regular;
paths = (
{
closed = 1;
nodes = (
"51 395 OFFCURVE",
"40 397 OFFCURVE",
"22 397 CURVE",
"22 423 OFFCURVE",
"88 512 OFFCURVE",
"131 512 CURVE SMOOTH",
"168 512 OFFCURVE",
"170 485 OFFCURVE",
"170 458 CURVE SMOOTH",
"170 432 OFFCURVE",
"170 26 OFFCURVE",
"170 7 CURVE SMOOTH",
"170 -12 OFFCURVE",
"168 -26 OFFCURVE",
"157 -42 CURVE",
"64 -140 LINE SMOOTH",
"49 -154 OFFCURVE",
"45 -155 OFFCURVE",
"31 -155 CURVE SMOOTH",
"18 -155 OFFCURVE",
"-149 -155 OFFCURVE",
"-166 -155 CURVE SMOOTH",
"-183 -155 OFFCURVE",
"-200 -146 OFFCURVE",
"-200 -121 CURVE SMOOTH",
"-200 -89 OFFCURVE",
"-121 -37 OFFCURVE",
"-80 -37 CURVE",
"-80 -48 OFFCURVE",
"-83 -59 OFFCURVE",
"-65 -59 CURVE SMOOTH",
"-40 -59 OFFCURVE",
"10 -59 OFFCURVE",
"23 -59 CURVE SMOOTH",
"35 -59 OFFCURVE",
"52 -46 OFFCURVE",
"52 -31 CURVE SMOOTH",
"52 -15 OFFCURVE",
"51 376 OFFCURVE",
"51 376 CURVE"
);
},
{
closed = 1;
nodes = (
"170 576 OFFCURVE",
"145 551 OFFCURVE",
"113 551 CURVE SMOOTH",
"75 551 OFFCURVE",
"50 576 OFFCURVE",
"50 608 CURVE SMOOTH",
"50 647 OFFCURVE",
"75 671 OFFCURVE",
"113 671 CURVE SMOOTH",
"145 671 OFFCURVE",
"170 647 OFFCURVE",
"170 608 CURVE SMOOTH"
);
}
);
width = 210;
}
);
unicode = 006A;
},
{
glyphname = k;
lastChange = "2016-02-25 18:55:43 +0000";
layers = (
{
layerId = "BD382907-E334-4565-904D-93E96FA04A02";
name = Regular;
paths = (
{
closed = 1;
nodes = (
"181 91 OFFCURVE",
"172 95 OFFCURVE",
"172 114 CURVE SMOOTH",
"172 138 OFFCURVE",
"172 644 OFFCURVE",
"172 664 CURVE SMOOTH",
"172 695 OFFCURVE",
"138 691 OFFCURVE",
"114 674 CURVE SMOOTH",
"92 657 OFFCURVE",
"35 603 OFFCURVE",
"35 572 CURVE",
"49 572 OFFCURVE",
"58 567 OFFCURVE",
"58 553 CURVE SMOOTH",
"58 533 OFFCURVE",
"58 56 OFFCURVE",
"58 33 CURVE SMOOTH",
"58 -12 OFFCURVE",
"77 -25 OFFCURVE",
"108 -11 CURVE SMOOTH",
"137 2 OFFCURVE",
"194 56 OFFCURVE",
"194 91 CURVE"
);
},
{
closed = 1;
nodes = (
"400 93 OFFCURVE",
"391 92 OFFCURVE",
"377 113 CURVE SMOOTH",
"365 133 OFFCURVE",
"271 302 OFFCURVE",
"271 302 CURVE",
"194 227 LINE",
"194 227 OFFCURVE",
"285 52 OFFCURVE",
"297 30 CURVE SMOOTH",
"309 9 OFFCURVE",
"317 -12 OFFCURVE",
"340 -12 CURVE SMOOTH",
"362 -12 OFFCURVE",
"414 34 OFFCURVE",
"414 93 CURVE"
);
},
{
closed = 1;
nodes = (
"181 411 OFFCURVE",
"199 414 OFFCURVE",
"223 414 CURVE SMOOTH",
"262 414 OFFCURVE",
"289 412 OFFCURVE",
"289 389 CURVE SMOOTH",
"289 340 OFFCURVE",
"125 213 OFFCURVE",
"125 213 CURVE",
"125 135 LINE",
"217 263 OFFCURVE",
"407 345 OFFCURVE",
"407 444 CURVE SMOOTH",
"407 488 OFFCURVE",
"388 500 OFFCURVE",
"343 500 CURVE",
"262 500 LINE",
"255 500 OFFCURVE",
"162 462 OFFCURVE",
"162 408 CURVE"
);
}
);
width = 449;
}
);
unicode = 006B;
},
{
glyphname = l;
lastChange = "2016-02-25 19:10:38 +0000";
layers = (
{
layerId = "BD382907-E334-4565-904D-93E96FA04A02";
name = Regular;
paths = (
{
closed = 1;
nodes = (
"56 611 OFFCURVE",
"60 599 OFFCURVE",
"60 588 CURVE SMOOTH",
"60 582 OFFCURVE",
"60 25 OFFCURVE",
"60 15 CURVE SMOOTH",
"60 4 OFFCURVE",
"60 -12 OFFCURVE",
"89 -12 CURVE SMOOTH",
"133 -12 OFFCURVE",
"204 56 OFFCURVE",
"204 90 CURVE",
"183 90 OFFCURVE",
"175 94 OFFCURVE",
"175 109 CURVE SMOOTH",
"175 116 OFFCURVE",
"175 674 OFFCURVE",
"175 685 CURVE SMOOTH",
"175 696 OFFCURVE",
"173 712 OFFCURVE",
"148 712 CURVE SMOOTH",
"113 712 OFFCURVE",
"35 641 OFFCURVE",
"35 611 CURVE"
);
}
);
width = 239;
}
);
leftMetricsKey = n;
rightMetricsKey = n;
unicode = 006C;
},
{
glyphname = lslash;
lastChange = "2016-02-27 16:09:45 +0000";
layers = (
{
layerId = "BD382907-E334-4565-904D-93E96FA04A02";
name = Regular;
paths = (
{
closed = 1;
nodes = (
"76 611 OFFCURVE",
"80 599 OFFCURVE",
"80 588 CURVE SMOOTH",
"80 582 OFFCURVE",
"80 25 OFFCURVE",
"80 15 CURVE SMOOTH",
"80 4 OFFCURVE",
"80 -12 OFFCURVE",
"109 -12 CURVE SMOOTH",
"153 -12 OFFCURVE",
"224 56 OFFCURVE",
"224 90 CURVE",
"203 90 OFFCURVE",
"195 94 OFFCURVE",
"195 109 CURVE SMOOTH",
"195 116 OFFCURVE",
"195 674 OFFCURVE",
"195 685 CURVE SMOOTH",
"195 696 OFFCURVE",
"193 712 OFFCURVE",
"168 712 CURVE SMOOTH",
"133 712 OFFCURVE",
"55 641 OFFCURVE",
"55 611 CURVE"
);
},
{
closed = 1;
nodes = (
"251 389 OFFCURVE",
"252 443 OFFCURVE",
"232 463 CURVE",
"213 443 OFFCURVE",
"174 458 OFFCURVE",
"155 439 CURVE",
"49 333 LINE",
"31 315 OFFCURVE",
"29 258 OFFCURVE",
"51 238 CURVE",
"69 257 OFFCURVE",
"104 243 OFFCURVE",
"123 261 CURVE",
"229 367 LINE"
);
}
);
width = 281;
}
);
leftMetricsKey = n;
rightMetricsKey = n;
unicode = 0142;
},
{
glyphname = m;
lastChange = "2016-02-25 12:35:39 +0000";
layers = (
{
layerId = "BD382907-E334-4565-904D-93E96FA04A02";
name = Regular;
paths = (
{
closed = 1;
nodes = (
"56 411 OFFCURVE",
"60 399 OFFCURVE",
"60 388 CURVE SMOOTH",
"60 382 OFFCURVE",
"60 25 OFFCURVE",
"60 15 CURVE SMOOTH",
"60 4 OFFCURVE",
"60 -12 OFFCURVE",
"89 -12 CURVE SMOOTH",
"133 -12 OFFCURVE",
"204 56 OFFCURVE",
"204 90 CURVE",
"183 90 OFFCURVE",
"175 94 OFFCURVE",
"175 109 CURVE SMOOTH",
"175 116 OFFCURVE",
"175 474 OFFCURVE",
"175 485 CURVE SMOOTH",
"175 496 OFFCURVE",
"173 512 OFFCURVE",
"148 512 CURVE SMOOTH",
"113 512 OFFCURVE",
"35 441 OFFCURVE",
"35 411 CURVE"
);
},
{
closed = 1;
nodes = (
"411 119 OFFCURVE",
"411 413 OFFCURVE",
"411 440 CURVE SMOOTH",
"411 468 OFFCURVE",
"390 512 OFFCURVE",
"343 512 CURVE SMOOTH",
"304 512 OFFCURVE",
"277 500 OFFCURVE",
"248 476 CURVE SMOOTH",
"203 439 OFFCURVE",
"164 409 OFFCURVE",
"119 409 CURVE",
"119 326 LINE",
"162 360 OFFCURVE",
"233 400 OFFCURVE",
"268 400 CURVE SMOOTH",
"289 400 OFFCURVE",
"296 390 OFFCURVE",
"296 365 CURVE SMOOTH",
"296 343 OFFCURVE",
"296 33 OFFCURVE",
"296 15 CURVE",
"296 4 OFFCURVE",
"296 -12 OFFCURVE",
"325 -12 CURVE SMOOTH",
"369 -12 OFFCURVE",
"440 56 OFFCURVE",
"440 90 CURVE",
"419 90 OFFCURVE",
"411 94 OFFCURVE",
"411 109 CURVE"
);
},
{
closed = 1;
nodes = (
"644 119 OFFCURVE",
"644 413 OFFCURVE",
"644 440 CURVE SMOOTH",
"644 468 OFFCURVE",
"623 512 OFFCURVE",
"576 512 CURVE SMOOTH",
"537 512 OFFCURVE",
"510 500 OFFCURVE",
"481 476 CURVE SMOOTH",
"436 439 OFFCURVE",
"397 409 OFFCURVE",
"352 409 CURVE",
"352 326 LINE",
"395 360 OFFCURVE",
"466 400 OFFCURVE",
"501 400 CURVE SMOOTH",
"522 400 OFFCURVE",
"529 390 OFFCURVE",
"529 365 CURVE SMOOTH",
"529 343 OFFCURVE",
"529 33 OFFCURVE",
"529 15 CURVE",
"529 4 OFFCURVE",
"529 -12 OFFCURVE",
"558 -12 CURVE SMOOTH",
"602 -12 OFFCURVE",
"673 56 OFFCURVE",
"673 90 CURVE",
"652 90 OFFCURVE",
"644 94 OFFCURVE",
"644 109 CURVE"
);
}
);
width = 708;
}
);
leftMetricsKey = n;
rightMetricsKey = n;
unicode = 006D;
},
{
glyphname = n;
lastChange = "2016-02-25 18:47:30 +0000";
layers = (
{
layerId = "BD382907-E334-4565-904D-93E96FA04A02";
name = Regular;
paths = (
{
closed = 1;
nodes = (
"56 411 OFFCURVE",
"60 399 OFFCURVE",
"60 388 CURVE SMOOTH",
"60 382 OFFCURVE",
"60 25 OFFCURVE",
"60 15 CURVE SMOOTH",
"60 4 OFFCURVE",
"60 -12 OFFCURVE",
"89 -12 CURVE SMOOTH",
"133 -12 OFFCURVE",
"204 56 OFFCURVE",
"204 90 CURVE",
"183 90 OFFCURVE",
"175 94 OFFCURVE",
"175 109 CURVE SMOOTH",
"175 116 OFFCURVE",
"175 474 OFFCURVE",
"175 485 CURVE SMOOTH",
"175 496 OFFCURVE",
"173 512 OFFCURVE",
"148 512 CURVE SMOOTH",
"113 512 OFFCURVE",
"35 441 OFFCURVE",
"35 411 CURVE"
);
},
{
closed = 1;
nodes = (
"411 119 OFFCURVE",
"411 413 OFFCURVE",
"411 440 CURVE SMOOTH",
"411 468 OFFCURVE",
"390 512 OFFCURVE",
"343 512 CURVE SMOOTH",
"304 512 OFFCURVE",
"277 500 OFFCURVE",
"248 476 CURVE SMOOTH",
"203 439 OFFCURVE",
"164 409 OFFCURVE",
"119 409 CURVE",
"119 326 LINE",
"162 360 OFFCURVE",
"233 400 OFFCURVE",
"268 400 CURVE SMOOTH",
"289 400 OFFCURVE",
"296 390 OFFCURVE",
"296 365 CURVE SMOOTH",
"296 343 OFFCURVE",
"296 33 OFFCURVE",
"296 15 CURVE",
"296 4 OFFCURVE",
"296 -12 OFFCURVE",
"325 -12 CURVE SMOOTH",
"369 -12 OFFCURVE",
"440 56 OFFCURVE",
"440 90 CURVE",
"419 90 OFFCURVE",
"411 94 OFFCURVE",
"411 109 CURVE"
);
}
);
width = 475;
}
);
unicode = 006E;
},
{
glyphname = o;
lastChange = "2016-02-25 19:11:37 +0000";
layers = (
{
anchors = (
{
name = top;
position = "{222, 500}";
}
);
layerId = "BD382907-E334-4565-904D-93E96FA04A02";
name = Regular;
paths = (
{
closed = 1;
nodes = (
"272 500 LINE",
"272 500 OFFCURVE",
"384 431 OFFCURVE",
"384 276 CURVE SMOOTH",
"384 113 OFFCURVE",
"284 -11 OFFCURVE",
"203 -11 CURVE SMOOTH",
"121 -11 OFFCURVE",
"35 89 OFFCURVE",
"35 207 CURVE SMOOTH",
"35 331 OFFCURVE",
"153 457 OFFCURVE",
"153 457 CURVE",
"178 457 LINE",
"178 457 OFFCURVE",
"141 357 OFFCURVE",
"141 264 CURVE SMOOTH",
"141 170 OFFCURVE",
"178 95 OFFCURVE",
"241 95 CURVE SMOOTH",
"278 95 OFFCURVE",
"290 126 OFFCURVE",
"290 138 CURVE SMOOTH",
"290 164 OFFCURVE",
"290 257 OFFCURVE",
"290 270 CURVE SMOOTH",
"290 325 OFFCURVE",
"247 407 OFFCURVE",
"190 407 CURVE SMOOTH",
"153 407 OFFCURVE",
"41 407 OFFCURVE",
"41 407 CURVE",
"41 444 OFFCURVE",
"72 482 OFFCURVE",
"97 500 CURVE"
);
}
);
width = 419;
}
);
leftMetricsKey = n;
rightMetricsKey = n;
unicode = 006F;
},
{
glyphname = oe;
lastChange = "2016-02-25 12:07:03 +0000";
layers = (
{
layerId = "BD382907-E334-4565-904D-93E96FA04A02";
name = Regular;
paths = (
{
closed = 1;
nodes = (
"435 444 LINE",
"435 444 OFFCURVE",
"384 407 OFFCURVE",
"384 311 CURVE SMOOTH",
"384 213 OFFCURVE",
"448 100 OFFCURVE",
"537 100 CURVE SMOOTH",
"585 100 OFFCURVE",
"604 147 OFFCURVE",
"619 147 CURVE SMOOTH",
"628 147 OFFCURVE",
"631 143 OFFCURVE",
"631 130 CURVE SMOOTH",
"631 98 OFFCURVE",
"547 -12 OFFCURVE",
"480 -12 CURVE SMOOTH",
"376 -12 OFFCURVE",
"297 115 OFFCURVE",
"297 250 CURVE SMOOTH",
"297 368 OFFCURVE",
"352 452 OFFCURVE",
"394 500 CURVE",
"394 500 OFFCURVE",
"571 500 OFFCURVE",
"605 500 CURVE SMOOTH",
"638 500 OFFCURVE",
"650 485 OFFCURVE",
"650 438 CURVE SMOOTH",
"650 298 OFFCURVE",
"507 177 OFFCURVE",
"425 128 CURVE SMOOTH",
"425 128 OFFCURVE",
"384 158 OFFCURVE",
"384 158 CURVE SMOOTH",
"474 224 OFFCURVE",
"528 284 OFFCURVE",
"528 369 CURVE SMOOTH",
"528 398 OFFCURVE",
"515 407 OFFCURVE",
"498 407 CURVE SMOOTH",
"481 407 OFFCURVE",
"412 407 OFFCURVE",
"384 407 CURVE"
);
},
{
closed = 1;
nodes = (
"272 500 LINE",
"272 500 OFFCURVE",
"384 431 OFFCURVE",
"384 276 CURVE SMOOTH",
"384 113 OFFCURVE",
"284 -11 OFFCURVE",
"203 -11 CURVE SMOOTH",
"121 -11 OFFCURVE",
"35 89 OFFCURVE",
"35 207 CURVE SMOOTH",
"35 331 OFFCURVE",
"153 457 OFFCURVE",
"153 457 CURVE",
"178 457 LINE",
"178 457 OFFCURVE",
"141 357 OFFCURVE",
"141 264 CURVE SMOOTH",
"141 170 OFFCURVE",
"178 95 OFFCURVE",
"241 95 CURVE SMOOTH",
"278 95 OFFCURVE",
"290 126 OFFCURVE",
"290 138 CURVE SMOOTH",
"290 164 OFFCURVE",
"290 257 OFFCURVE",
"290 270 CURVE SMOOTH",
"290 325 OFFCURVE",
"247 407 OFFCURVE",
"190 407 CURVE SMOOTH",
"153 407 OFFCURVE",
"41 407 OFFCURVE",
"41 407 CURVE",
"41 444 OFFCURVE",
"72 482 OFFCURVE",
"97 500 CURVE"
);
}
);
width = 685;
}
);
unicode = 0153;
},
{
glyphname = p;
lastChange = "2016-02-25 19:11:23 +0000";
layers = (
{
layerId = "BD382907-E334-4565-904D-93E96FA04A02";
name = Regular;
paths = (
{
closed = 1;
nodes = (
"65 371 LINE",
"65 402 OFFCURVE",
"55 410 OFFCURVE",
"35 410 CURVE",
"36 434 OFFCURVE",
"101 501 OFFCURVE",
"132 501 CURVE SMOOTH",
"168 501 OFFCURVE",
"163 441 OFFCURVE",
"163 411 CURVE",
"163 -52 LINE",
"163 -83 OFFCURVE",
"173 -91 OFFCURVE",
"193 -91 CURVE",
"192 -115 OFFCURVE",
"127 -182 OFFCURVE",
"96 -182 CURVE SMOOTH",
"60 -182 OFFCURVE",
"65 -122 OFFCURVE",
"65 -92 CURVE"
);
},
{
closed = 1;
nodes = (
"143 426 LINE",
"159 471 OFFCURVE",
"234 500 OFFCURVE",
"240 500 CURVE",
"240 500 OFFCURVE",
"313 500 OFFCURVE",
"336 500 CURVE SMOOTH",
"359 500 OFFCURVE",
"376 494 OFFCURVE",
"397 471 CURVE SMOOTH",
"412 454 OFFCURVE",
"421 426 OFFCURVE",
"421 406 CURVE SMOOTH",
"421 375 OFFCURVE",
"430 287 OFFCURVE",
"380 171 CURVE SMOOTH",
"342 84 OFFCURVE",
"291 -12 OFFCURVE",
"181 -12 CURVE SMOOTH",
"81 -12 OFFCURVE",
"95 66 OFFCURVE",
"95 119 CURVE",
"163 131 LINE",
"163 86 OFFCURVE",
"193 64 OFFCURVE",
"218 64 CURVE SMOOTH",
"245 64 OFFCURVE",
"316 121 OFFCURVE",
"316 291 CURVE SMOOTH",
"316 397 OFFCURVE",
"279 426 OFFCURVE",
"232 426 CURVE"
);
}
);
width = 457;
}
);
leftMetricsKey = n;
rightMetricsKey = n;
unicode = 0070;
},
{
glyphname = q;
lastChange = "2016-02-25 19:11:58 +0000";
layers = (
{
layerId = "BD382907-E334-4565-904D-93E96FA04A02";
name = Regular;
paths = (
{
closed = 1;
nodes = (
"90 451 OFFCURVE",
"35 369 OFFCURVE",
"35 250 CURVE SMOOTH",
"35 116 OFFCURVE",
"114 -12 OFFCURVE",
"218 -12 CURVE SMOOTH",
"285 -12 OFFCURVE",
"369 98 OFFCURVE",
"369 131 CURVE SMOOTH",
"369 143 OFFCURVE",
"367 147 OFFCURVE",
"358 147 CURVE SMOOTH",
"343 147 OFFCURVE",
"324 100 OFFCURVE",
"277 100 CURVE SMOOTH",
"187 100 OFFCURVE",
"123 214 OFFCURVE",
"123 312 CURVE SMOOTH",
"123 410 OFFCURVE",
"182 470 OFFCURVE",
"220 500 CURVE",
"132 500 LINE"
);
},
{
closed = 1;
nodes = (
"400 440 OFFCURVE",
"405 500 OFFCURVE",
"369 500 CURVE SMOOTH",
"338 500 OFFCURVE",
"273 450 OFFCURVE",
"272 426 CURVE",
"292 426 OFFCURVE",
"302 418 OFFCURVE",
"302 387 CURVE",
"302 358 OFFCURVE",
"302 58 OFFCURVE",
"302 15 CURVE",
"400 73 LINE",
"400 126 OFFCURVE",
"400 359 OFFCURVE",
"400 410 CURVE"
);
},
{
closed = 1;
nodes = (
"302 -123 OFFCURVE",
"297 -183 OFFCURVE",
"333 -183 CURVE SMOOTH",
"364 -183 OFFCURVE",
"429 -116 OFFCURVE",
"430 -92 CURVE",
"410 -92 OFFCURVE",
"400 -84 OFFCURVE",
"400 -53 CURVE",
"400 -24 OFFCURVE",
"400 259 OFFCURVE",
"400 302 CURVE",
"302 244 LINE",
"302 191 OFFCURVE",
"302 -42 OFFCURVE",
"302 -93 CURVE"
);
},
{
closed = 1;
nodes = (
"322 426 LINE",
"369 500 LINE",
"344 500 OFFCURVE",
"154 500 OFFCURVE",
"132 500 CURVE",
"132 426 LINE"
);
}
);
width = 465;
}
);
leftMetricsKey = n;
rightMetricsKey = n;
unicode = 0071;
},
{
glyphname = r;
lastChange = "2016-02-25 19:11:52 +0000";
layers = (
{
layerId = "BD382907-E334-4565-904D-93E96FA04A02";
name = Regular;
paths = (
{
closed = 1;
nodes = (
"35 411 OFFCURVE",
"33 414 OFFCURVE",
"37 427 CURVE SMOOTH",
"47 454 OFFCURVE",
"109 513 OFFCURVE",
"140 513 CURVE SMOOTH",
"163 513 OFFCURVE",
"165 495 OFFCURVE",
"165 486 CURVE SMOOTH",
"165 478 OFFCURVE",
"165 119 OFFCURVE",
"165 101 CURVE SMOOTH",
"165 94 OFFCURVE",
"168 92 OFFCURVE",
"174 92 CURVE SMOOTH",
"187 92 OFFCURVE",
"197 91 OFFCURVE",
"187 75 CURVE SMOOTH",
"169 46 OFFCURVE",
"111 -12 OFFCURVE",
"81 -12 CURVE SMOOTH",
"55 -12 OFFCURVE",
"54 2 OFFCURVE",
"54 17 CURVE SMOOTH",
"54 31 OFFCURVE",
"54 387 OFFCURVE",
"54 399 CURVE SMOOTH",
"54 410 OFFCURVE",
"50 411 OFFCURVE",
"44 411 CURVE SMOOTH"
);
},
{
closed = 1;
nodes = (
"207 500 OFFCURVE",
"279 500 OFFCURVE",
"296 500 CURVE SMOOTH",
"316 500 OFFCURVE",
"321 497 OFFCURVE",
"321 478 CURVE SMOOTH",
"321 427 OFFCURVE",
"257 322 OFFCURVE",
"231 322 CURVE SMOOTH",
"206 322 OFFCURVE",
"226 345 OFFCURVE",
"226 360 CURVE SMOOTH",
"226 367 OFFCURVE",
"226 365 OFFCURVE",
"226 390 CURVE SMOOTH",
"226 414 OFFCURVE",
"207 416 OFFCURVE",
"195 416 CURVE SMOOTH",
"181 416 OFFCURVE",
"170 416 OFFCURVE",
"153 416 CURVE",
"153 472 LINE",
"193 472 OFFCURVE",
"181 500 OFFCURVE",
"207 500 CURVE SMOOTH"
);
}
);
width = 321;
}
);
leftMetricsKey = n;
unicode = 0072;
},
{
glyphname = s;
lastChange = "2016-02-25 19:11:28 +0000";
layers = (
{
layerId = "BD382907-E334-4565-904D-93E96FA04A02";
name = Regular;
paths = (
{
closed = 1;
nodes = (
"283 269 OFFCURVE",
"370 229 OFFCURVE",
"370 162 CURVE SMOOTH",
"370 86 OFFCURVE",
"296 0 OFFCURVE",
"280 0 CURVE SMOOTH",
"263 0 OFFCURVE",
"136 0 OFFCURVE",
"112 0 CURVE SMOOTH",
"79 0 OFFCURVE",
"35 0 OFFCURVE",
"35 27 CURVE SMOOTH",
"35 70 OFFCURVE",
"98 121 OFFCURVE",
"118 121 CURVE",
"118 107 OFFCURVE",
"124 96 OFFCURVE",
"143 96 CURVE SMOOTH",
"166 96 OFFCURVE",
"237 96 OFFCURVE",
"249 96 CURVE SMOOTH",
"266 96 OFFCURVE",
"298 92 OFFCURVE",
"298 120 CURVE SMOOTH",
"298 152 OFFCURVE",
"204 189 OFFCURVE",
"161 211 CURVE SMOOTH",
"124 230 OFFCURVE",
"35 270 OFFCURVE",
"35 338 CURVE SMOOTH",
"35 409 OFFCURVE",
"108 500 OFFCURVE",
"125 500 CURVE SMOOTH",
"141 500 OFFCURVE",
"259 500 OFFCURVE",
"283 500 CURVE SMOOTH",
"316 500 OFFCURVE",
"360 500 OFFCURVE",
"360 473 CURVE SMOOTH",
"360 431 OFFCURVE",
"297 378 OFFCURVE",
"278 378 CURVE",
"278 393 OFFCURVE",
"271 404 OFFCURVE",
"252 404 CURVE SMOOTH",
"229 404 OFFCURVE",
"167 404 OFFCURVE",
"156 404 CURVE SMOOTH",
"138 404 OFFCURVE",
"106 408 OFFCURVE",
"106 379 CURVE SMOOTH",
"106 347 OFFCURVE",
"199 309 OFFCURVE",
"243 288 CURVE SMOOTH"
);
}
);
width = 405;
}
);
leftMetricsKey = n;
rightMetricsKey = n;
unicode = 0073;
},
{
glyphname = t;
lastChange = "2016-02-25 19:11:02 +0000";
layers = (
{
layerId = "BD382907-E334-4565-904D-93E96FA04A02";
name = Regular;
paths = (
{
closed = 1;
nodes = (
"215 97 OFFCURVE",
"219 97 OFFCURVE",
"207 97 CURVE SMOOTH",
"196 97 OFFCURVE",
"192 103 OFFCURVE",
"192 115 CURVE SMOOTH",
"192 134 OFFCURVE",
"192 396 OFFCURVE",
"192 403 CURVE SMOOTH",
"192 408 OFFCURVE",
"193 410 OFFCURVE",
"198 410 CURVE SMOOTH",
"205 410 OFFCURVE",
"224 410 OFFCURVE",
"224 410 CURVE SMOOTH",
"224 410 OFFCURVE",
"224 410 OFFCURVE",
"256 480 CURVE SMOOTH",
"262 493 OFFCURVE",
"261 500 OFFCURVE",
"249 500 CURVE SMOOTH",
"230 500 OFFCURVE",
"205 500 OFFCURVE",
"198 500 CURVE SMOOTH",
"194 500 OFFCURVE",
"192 502 OFFCURVE",
"192 506 CURVE SMOOTH",
"192 512 OFFCURVE",
"192 668 OFFCURVE",
"192 668 CURVE SMOOTH",
"192 674 OFFCURVE",
"189 679 OFFCURVE",
"182 679 CURVE SMOOTH",
"182 679 OFFCURVE",
"169 679 OFFCURVE",
"163 679 CURVE SMOOTH",
"156 679 OFFCURVE",
"153 674 OFFCURVE",
"153 668 CURVE SMOOTH",
"153 610 OFFCURVE",
"83 500 OFFCURVE",
"45 455 CURVE SMOOTH",
"19 423 OFFCURVE",
"32 410 OFFCURVE",
"45 410 CURVE SMOOTH",
"64 410 OFFCURVE",
"64 410 OFFCURVE",
"70 410 CURVE SMOOTH",
"75 410 OFFCURVE",
"77 408 OFFCURVE",
"77 401 CURVE SMOOTH",
"77 395 OFFCURVE",
"77 109 OFFCURVE",
"77 90 CURVE SMOOTH",
"77 33 OFFCURVE",
"123 -12 OFFCURVE",
"147 -12 CURVE SMOOTH",
"159 -12 OFFCURVE",
"167 -8 OFFCURVE",
"175 0 CURVE SMOOTH",
"215 40 OFFCURVE",
"252 97 OFFCURVE",
"236 97 CURVE SMOOTH"
);
}
);
width = 290;
}
);
unicode = 0074;
},
{
glyphname = u;
lastChange = "2016-02-25 19:12:02 +0000";
layers = (
{
layerId = "BD382907-E334-4565-904D-93E96FA04A02";
name = Regular;
paths = (
{
closed = 1;
nodes = (
"410 89 OFFCURVE",
"406 101 OFFCURVE",
"406 112 CURVE SMOOTH",
"406 118 OFFCURVE",
"406 475 OFFCURVE",
"406 485 CURVE SMOOTH",
"406 496 OFFCURVE",
"406 512 OFFCURVE",
"377 512 CURVE SMOOTH",
"333 512 OFFCURVE",
"262 444 OFFCURVE",
"262 410 CURVE",
"283 410 OFFCURVE",
"291 406 OFFCURVE",
"291 391 CURVE SMOOTH",
"291 384 OFFCURVE",
"291 26 OFFCURVE",
"291 15 CURVE SMOOTH",
"291 4 OFFCURVE",
"293 -12 OFFCURVE",
"318 -12 CURVE SMOOTH",
"353 -12 OFFCURVE",
"431 59 OFFCURVE",
"431 89 CURVE"
);
},
{
closed = 1;
nodes = (
"304 140 OFFCURVE",
"233 100 OFFCURVE",
"198 100 CURVE SMOOTH",
"177 100 OFFCURVE",
"170 110 OFFCURVE",
"170 135 CURVE SMOOTH",
"170 157 OFFCURVE",
"170 458 OFFCURVE",
"170 476 CURVE SMOOTH",
"170 500 OFFCURVE",
"166 512 OFFCURVE",
"141 512 CURVE SMOOTH",
"98 512 OFFCURVE",
"35 423 OFFCURVE",
"35 404 CURVE",
"55 404 OFFCURVE",
"58 398 OFFCURVE",
"58 385 CURVE SMOOTH",
"58 375 OFFCURVE",
"58 87 OFFCURVE",
"58 60 CURVE SMOOTH",
"58 32 OFFCURVE",
"79 -12 OFFCURVE",
"126 -12 CURVE SMOOTH",
"155 -12 OFFCURVE",
"189 -1 OFFCURVE",
"218 24 CURVE SMOOTH",
"262 61 OFFCURVE",
"302 91 OFFCURVE",
"347 91 CURVE",
"347 174 LINE"
);
}
);
width = 466;
}
);
leftMetricsKey = n;
rightMetricsKey = n;
unicode = 0075;
},
{
glyphname = v;
lastChange = "2016-02-27 15:44:04 +0000";
layers = (
{
layerId = "BD382907-E334-4565-904D-93E96FA04A02";
name = Regular;
paths = (
{
closed = 1;
nodes = (
"55 401 OFFCURVE",
"58 395 OFFCURVE",
"58 382 CURVE SMOOTH",
"58 360 OFFCURVE",
"58 103 OFFCURVE",
"58 72 CURVE SMOOTH",
"58 27 OFFCURVE",
"80 -11 OFFCURVE",
"124 -11 CURVE SMOOTH",
"279 -11 OFFCURVE",
"406 181 OFFCURVE",
"406 344 CURVE SMOOTH",
"406 431 LINE SMOOTH",
"406 472 OFFCURVE",
"387 500 OFFCURVE",
"346 500 CURVE",
"247 500 LINE",
"247 500 OFFCURVE",
"147 462 OFFCURVE",
"147 409 CURVE",
"260 409 LINE",
"277 409 OFFCURVE",
"290 398 OFFCURVE",
"290 370 CURVE SMOOTH",
"290 340 OFFCURVE",
"290 285 OFFCURVE",
"290 233 CURVE SMOOTH",
"290 156 OFFCURVE",
"253 78 OFFCURVE",
"212 78 CURVE SMOOTH",
"169 78 OFFCURVE",
"169 105 OFFCURVE",
"169 134 CURVE SMOOTH",
"169 159 OFFCURVE",
"169 382 OFFCURVE",
"169 472 CURVE SMOOTH",
"169 495 OFFCURVE",
"166 507 OFFCURVE",
"140 507 CURVE SMOOTH",
"105 507 OFFCURVE",
"35 423 OFFCURVE",
"35 401 CURVE"
);
}
);
width = 441;
}
);
leftMetricsKey = n;
rightMetricsKey = n;
unicode = 0076;
},
{
glyphname = w;
lastChange = "2016-02-27 16:02:37 +0000";
layers = (
{
background = {
paths = (
{
closed = 1;
nodes = (
"322 401 OFFCURVE",
"325 395 OFFCURVE",
"325 382 CURVE SMOOTH",
"325 360 OFFCURVE",
"325 103 OFFCURVE",
"325 72 CURVE SMOOTH",
"325 27 OFFCURVE",
"347 -11 OFFCURVE",
"391 -11 CURVE SMOOTH",
"546 -11 OFFCURVE",
"673 181 OFFCURVE",
"673 344 CURVE SMOOTH",
"673 431 LINE SMOOTH",
"673 472 OFFCURVE",
"654 500 OFFCURVE",
"613 500 CURVE",
"514 500 LINE",
"514 500 OFFCURVE",
"414 462 OFFCURVE",
"414 409 CURVE",
"539 409 LINE",
"556 409 OFFCURVE",
"569 398 OFFCURVE",
"569 370 CURVE SMOOTH",
"569 340 OFFCURVE",
"569 285 OFFCURVE",
"569 233 CURVE SMOOTH",
"569 156 OFFCURVE",
"532 78 OFFCURVE",
"479 78 CURVE SMOOTH",
"436 78 OFFCURVE",
"436 105 OFFCURVE",
"436 134 CURVE SMOOTH",
"436 159 OFFCURVE",
"436 382 OFFCURVE",
"436 472 CURVE SMOOTH",
"436 495 OFFCURVE",
"433 507 OFFCURVE",
"407 507 CURVE SMOOTH",
"372 507 OFFCURVE",
"302 423 OFFCURVE",
"302 401 CURVE"
);
}
);
};
layerId = "BD382907-E334-4565-904D-93E96FA04A02";
name = Regular;
paths = (
{
closed = 1;
nodes = (
"527 409 LINE",
"544 409 OFFCURVE",
"557 398 OFFCURVE",
"557 370 CURVE SMOOTH",
"557 340 OFFCURVE",
"557 285 OFFCURVE",
"557 233 CURVE SMOOTH",
"557 156 OFFCURVE",
"520 78 OFFCURVE",
"479 78 CURVE SMOOTH",
"436 78 OFFCURVE",
"436 105 OFFCURVE",
"436 134 CURVE SMOOTH",
"436 159 OFFCURVE",
"436 390 OFFCURVE",
"436 480 CURVE",
"297 409 LINE",
"317 409 OFFCURVE",
"325 398 OFFCURVE",
"325 385 CURVE SMOOTH",
"325 363 OFFCURVE",
"325 103 OFFCURVE",
"325 72 CURVE SMOOTH",
"325 27 OFFCURVE",
"347 -11 OFFCURVE",
"391 -11 CURVE SMOOTH",
"546 -11 OFFCURVE",
"673 181 OFFCURVE",
"673 344 CURVE SMOOTH",
"673 431 LINE SMOOTH",
"673 472 OFFCURVE",
"654 500 OFFCURVE",
"613 500 CURVE",
"165 500 LINE",
"149 500 OFFCURVE",
"135 507 OFFCURVE",
"135 522 CURVE",
"110 522 OFFCURVE",
"35 472 OFFCURVE",
"35 439 CURVE SMOOTH",
"35 421 OFFCURVE",
"46 409 OFFCURVE",
"65 409 CURVE"
);
},
{
closed = 1;
nodes = (
"225 374 OFFCURVE",
"214 409 OFFCURVE",
"191 409 CURVE SMOOTH",
"150 409 OFFCURVE",
"88 335 OFFCURVE",
"88 314 CURVE",
"101 314 OFFCURVE",
"114 308 OFFCURVE",
"114 274 CURVE",
"114 204 OFFCURVE",
"114 114 OFFCURVE",
"114 85 CURVE SMOOTH",
"114 57 OFFCURVE",
"118 -13 OFFCURVE",
"202 -13 CURVE SMOOTH",
"286 -13 OFFCURVE",
"363 65 OFFCURVE",
"370 75 CURVE SMOOTH",
"374 84 OFFCURVE",
"363 113 OFFCURVE",
"363 113 CURVE SMOOTH",
"363 113 OFFCURVE",
"351 99 OFFCURVE",
"341 93 CURVE SMOOTH",
"331 85 OFFCURVE",
"304 69 OFFCURVE",
"277 69 CURVE SMOOTH",
"239 69 OFFCURVE",
"225 77 OFFCURVE",
"225 123 CURVE",
"225 123 OFFCURVE",
"225 310 OFFCURVE",
"225 338 CURVE"
);
}
);
width = 708;
}
);
unicode = 0077;
},
{
glyphname = x;
lastChange = "2016-02-25 15:17:43 +0000";
layers = (
{
background = {
paths = (
{
closed = 1;
nodes = (
"667 500 OFFCURVE",
"677 482 OFFCURVE",
"691 459 CURVE SMOOTH",
"705 435 OFFCURVE",
"878 157 OFFCURVE",
"893 134 CURVE SMOOTH",
"908 112 OFFCURVE",
"916 100 OFFCURVE",
"954 100 CURVE",
"954 80 OFFCURVE",
"909 0 OFFCURVE",
"877 0 CURVE SMOOTH",
"865 0 OFFCURVE",
"850 24 OFFCURVE",
"839 40 CURVE SMOOTH",
"815 78 OFFCURVE",
"649 344 OFFCURVE",
"635 368 CURVE SMOOTH",
"621 392 OFFCURVE",
"618 394 OFFCURVE",
"581 394 CURVE",
"581 429 OFFCURVE",
"632 500 OFFCURVE",
"653 500 CURVE SMOOTH"
);
}
);
};
layerId = "BD382907-E334-4565-904D-93E96FA04A02";
name = Regular;
paths = (
{
closed = 1;
nodes = (
"441 500 OFFCURVE",
"458 482 OFFCURVE",
"458 456 CURVE SMOOTH",
"458 432 OFFCURVE",
"424 381 OFFCURVE",
"390 346 CURVE",
"387 350 OFFCURVE",
"361 370 OFFCURVE",
"344 342 CURVE",
"191 90 LINE",
"171 56 OFFCURVE",
"130 0 OFFCURVE",
"85 0 CURVE SMOOTH",
"58 0 OFFCURVE",
"35 22 OFFCURVE",
"35 48 CURVE SMOOTH",
"35 74 OFFCURVE",
"59 116 OFFCURVE",
"98 154 CURVE",
"101 150 OFFCURVE",
"123 130 OFFCURVE",
"144 158 CURVE",
"309 415 LINE",
"336 457 OFFCURVE",
"369 500 OFFCURVE",
"408 500 CURVE SMOOTH"
);
},
{
closed = 1;
nodes = (
"71 374 OFFCURVE",
"101 476 OFFCURVE",
"129 494 CURVE SMOOTH",
"151 508 OFFCURVE",
"161 495 OFFCURVE",
"168 486 CURVE SMOOTH",
"173 477 OFFCURVE",
"393 160 OFFCURVE",
"397 155 CURVE SMOOTH",
"405 143 OFFCURVE",
"414 143 OFFCURVE",
"432 155 CURVE",
"450 126 OFFCURVE",
"425 30 OFFCURVE",
"388 7 CURVE SMOOTH",
"365 -8 OFFCURVE",
"355 5 OFFCURVE",
"350 15 CURVE SMOOTH",
"344 23 OFFCURVE",
"124 337 OFFCURVE",
"122 343 CURVE SMOOTH",
"115 352 OFFCURVE",
"106 361 OFFCURVE",
"87 349 CURVE"
);
}
);
width = 493;
}
);
unicode = 0078;
},
{
glyphname = y;
lastChange = "2016-02-25 12:54:25 +0000";
layers = (
{
anchors = (
{
name = dieresis;
position = "{241, 500}";
}
);
layerId = "BD382907-E334-4565-904D-93E96FA04A02";
name = Regular;
paths = (
{
closed = 1;
nodes = (
"392 155 OFFCURVE",
"254 -12 OFFCURVE",
"153 -12 CURVE SMOOTH",
"94 -12 OFFCURVE",
"64 27 OFFCURVE",
"64 77 CURVE SMOOTH",
"64 133 OFFCURVE",
"64 364 OFFCURVE",
"64 378 CURVE SMOOTH",
"64 392 OFFCURVE",
"60 400 OFFCURVE",
"35 400 CURVE",
"35 425 OFFCURVE",
"119 512 OFFCURVE",
"149 512 CURVE SMOOTH",
"179 512 OFFCURVE",
"183 490 OFFCURVE",
"183 472 CURVE SMOOTH",
"183 453 OFFCURVE",
"183 143 OFFCURVE",
"183 128 CURVE SMOOTH",
"183 108 OFFCURVE",
"192 95 OFFCURVE",
"216 95 CURVE SMOOTH",
"261 95 OFFCURVE",
"347 150 OFFCURVE",
"392 187 CURVE",
"392 155 LINE"
);
},
{
closed = 1;
nodes = (
"291 395 OFFCURVE",
"280 397 OFFCURVE",
"262 397 CURVE",
"262 423 OFFCURVE",
"328 512 OFFCURVE",
"371 512 CURVE SMOOTH",
"408 512 OFFCURVE",
"410 485 OFFCURVE",
"410 458 CURVE SMOOTH",
"410 432 OFFCURVE",
"410 26 OFFCURVE",
"410 7 CURVE SMOOTH",
"410 -12 OFFCURVE",
"408 -26 OFFCURVE",
"397 -42 CURVE",
"304 -140 LINE SMOOTH",
"289 -154 OFFCURVE",
"285 -155 OFFCURVE",
"271 -155 CURVE SMOOTH",
"258 -155 OFFCURVE",
"91 -155 OFFCURVE",
"74 -155 CURVE SMOOTH",
"57 -155 OFFCURVE",
"40 -146 OFFCURVE",
"40 -121 CURVE SMOOTH",
"40 -89 OFFCURVE",
"119 -37 OFFCURVE",
"160 -37 CURVE",
"160 -48 OFFCURVE",
"157 -59 OFFCURVE",
"175 -59 CURVE SMOOTH",
"200 -59 OFFCURVE",
"250 -59 OFFCURVE",
"263 -59 CURVE SMOOTH",
"275 -59 OFFCURVE",
"292 -46 OFFCURVE",
"292 -31 CURVE SMOOTH",
"292 -15 OFFCURVE",
"291 376 OFFCURVE",
"291 376 CURVE"
);
}
);
width = 445;
}
);
unicode = 0079;
},
{
glyphname = z;
lastChange = "2016-02-15 18:10:59 +0000";
layers = (
{
anchors = (
{
name = dotaccent;
position = "{220, 500}";
}
);
layerId = "BD382907-E334-4565-904D-93E96FA04A02";
name = Regular;
paths = (
{
closed = 1;
nodes = (
"112 500 OFFCURVE",
"353 500 OFFCURVE",
"368 500 CURVE SMOOTH",
"400 500 OFFCURVE",
"381 467 OFFCURVE",
"376 458 CURVE SMOOTH",
"371 448 OFFCURVE",
"223 154 OFFCURVE",
"216 142 CURVE SMOOTH",
"207 123 OFFCURVE",
"211 93 OFFCURVE",
"232 93 CURVE SMOOTH",
"244 93 OFFCURVE",
"361 93 OFFCURVE",
"371 93 CURVE SMOOTH",
"402 93 OFFCURVE",
"387 65 OFFCURVE",
"381 57 CURVE SMOOTH",
"376 49 OFFCURVE",
"332 0 OFFCURVE",
"332 0 CURVE SMOOTH",
"332 0 OFFCURVE",
"76 0 OFFCURVE",
"62 0 CURVE SMOOTH",
"19 0 OFFCURVE",
"37 40 OFFCURVE",
"50 62 CURVE SMOOTH",
"62 83 OFFCURVE",
"201 347 OFFCURVE",
"207 358 CURVE SMOOTH",
"218 380 OFFCURVE",
"215 401 OFFCURVE",
"192 401 CURVE SMOOTH",
"176 401 OFFCURVE",
"94 401 OFFCURVE",
"80 401 CURVE SMOOTH",
"56 401 OFFCURVE",
"59 422 OFFCURVE",
"71 440 CURVE SMOOTH",
"76 448 OFFCURVE",
"112 500 OFFCURVE",
"112 500 CURVE SMOOTH"
);
}
);
width = 425;
}
);
unicode = 007A;
},
{
glyphname = a.001;
lastChange = "2016-02-15 18:00:00 +0000";
layers = (
{
layerId = "BD382907-E334-4565-904D-93E96FA04A02";
name = Regular;
paths = (
{
closed = 1;
nodes = (
"126 424 OFFCURVE",
"141 418 OFFCURVE",
"242 416 CURVE SMOOTH",
"283 415 OFFCURVE",
"288 400 OFFCURVE",
"288 372 CURVE SMOOTH",
"288 354 OFFCURVE",
"290 314 OFFCURVE",
"290 306 CURVE SMOOTH",
"290 298 OFFCURVE",
"296 106 OFFCURVE",
"296 83 CURVE SMOOTH",
"296 59 OFFCURVE",
"290 0 OFFCURVE",
"327 0 CURVE SMOOTH",
"352 0 OFFCURVE",
"419 67 OFFCURVE",
"419 88 CURVE",
"404 88 OFFCURVE",
"393 75 OFFCURVE",
"393 140 CURVE SMOOTH",
"393 159 OFFCURVE",
"393 393 OFFCURVE",
"393 428 CURVE SMOOTH",
"393 458 OFFCURVE",
"386 469 OFFCURVE",
"370 486 CURVE SMOOTH",
"361 496 OFFCURVE",
"347 500 OFFCURVE",
"328 500 CURVE SMOOTH",
"310 500 OFFCURVE",
"264 500 OFFCURVE",
"229 500 CURVE SMOOTH",
"169 500 OFFCURVE",
"155 504 OFFCURVE",
"126 488 CURVE SMOOTH",
"96 471 OFFCURVE",
"36 385 OFFCURVE",
"35 382 CURVE",
"57 361 LINE"
);
},
{
closed = 1;
nodes = (
"299 371 OFFCURVE",
"271 361 OFFCURVE",
"240 348 CURVE SMOOTH",
"204 333 OFFCURVE",
"151 310 OFFCURVE",
"133 301 CURVE SMOOTH",
"113 291 OFFCURVE",
"80 274 OFFCURVE",
"66 253 CURVE SMOOTH",
"51 231 OFFCURVE",
"40 194 OFFCURVE",
"40 176 CURVE SMOOTH",
"40 145 OFFCURVE",
"40 107 OFFCURVE",
"40 80 CURVE SMOOTH",
"40 52 OFFCURVE",
"48 24 OFFCURVE",
"58 13 CURVE SMOOTH",
"67 4 OFFCURVE",
"81 -4 OFFCURVE",
"108 -4 CURVE SMOOTH",
"136 -4 OFFCURVE",
"157 3 OFFCURVE",
"194 24 CURVE SMOOTH",
"231 44 OFFCURVE",
"285 79 OFFCURVE",
"301 79 CURVE",
"304 132 LINE",
"294 132 OFFCURVE",
"275 118 OFFCURVE",
"254 106 CURVE SMOOTH",
"232 95 OFFCURVE",
"202 77 OFFCURVE",
"180 77 CURVE SMOOTH",
"157 77 OFFCURVE",
"144 99 OFFCURVE",
"144 157 CURVE SMOOTH",
"144 215 OFFCURVE",
"145 237 OFFCURVE",
"201 269 CURVE SMOOTH",
"258 301 OFFCURVE",
"281 311 OFFCURVE",
"304 311 CURVE",
"312 371 LINE"
);
}
);
width = 454;
}
);
},
{
glyphname = f_f;
lastChange = "2016-02-25 18:53:48 +0000";
layers = (
{
layerId = "BD382907-E334-4565-904D-93E96FA04A02";
name = Regular;
paths = (
{
closed = 1;
nodes = (
"285 685 OFFCURVE",
"299 681 OFFCURVE",
"299 665 CURVE SMOOTH",
"299 648 OFFCURVE",
"246 583 OFFCURVE",
"218 583 CURVE",
"218 591 OFFCURVE",
"216 612 OFFCURVE",
"151 612 CURVE SMOOTH",
"145 612 OFFCURVE",
"137 614 OFFCURVE",
"137 579 CURVE SMOOTH",
"137 541 OFFCURVE",
"137 524 OFFCURVE",
"137 524 CURVE",
"171 524 OFFCURVE",
"295 524 OFFCURVE",
"329 524 CURVE",
"329 498 OFFCURVE",
"313 453 OFFCURVE",
"280 453 CURVE SMOOTH",
"250 453 OFFCURVE",
"139 453 OFFCURVE",
"139 453 CURVE",
"139 -59 LINE",
"139 -59 OFFCURVE",
"102 -157 OFFCURVE",
"35 -157 CURVE",
"35 -55 OFFCURVE",
"35 459 OFFCURVE",
"35 522 CURVE SMOOTH",
"35 585 OFFCURVE",
"119 685 OFFCURVE",
"151 685 CURVE SMOOTH",
"177 685 OFFCURVE",
"234 685 OFFCURVE",
"224 685 CURVE"
);
},
{
closed = 1;
nodes = (
"510 700 OFFCURVE",
"514 696 OFFCURVE",
"514 680 CURVE SMOOTH",
"514 663 OFFCURVE",
"461 598 OFFCURVE",
"433 598 CURVE",
"433 606 OFFCURVE",
"441 627 OFFCURVE",
"376 627 CURVE SMOOTH",
"370 627 OFFCURVE",
"362 629 OFFCURVE",
"362 594 CURVE SMOOTH",
"362 556 OFFCURVE",
"362 524 OFFCURVE",
"362 524 CURVE",
"396 524 OFFCURVE",
"430 524 OFFCURVE",
"464 524 CURVE",
"464 498 OFFCURVE",
"448 453 OFFCURVE",
"415 453 CURVE SMOOTH",
"385 453 OFFCURVE",
"364 453 OFFCURVE",
"364 453 CURVE",
"364 -59 LINE",
"364 -59 OFFCURVE",
"327 -157 OFFCURVE",
"260 -157 CURVE",
"260 -55 OFFCURVE",
"260 474 OFFCURVE",
"260 537 CURVE SMOOTH",
"260 600 OFFCURVE",
"344 700 OFFCURVE",
"376 700 CURVE SMOOTH",
"402 700 OFFCURVE",
"449 700 OFFCURVE",
"449 700 CURVE"
);
}
);
width = 600;
}
);
},
{
glyphname = fi;
lastChange = "2016-02-25 12:29:08 +0000";
layers = (
{
layerId = "BD382907-E334-4565-904D-93E96FA04A02";
name = Regular;
paths = (
{
closed = 1;
nodes = (
"310 700 OFFCURVE",
"177 700 OFFCURVE",
"151 700 CURVE SMOOTH",
"119 700 OFFCURVE",
"35 600 OFFCURVE",
"35 537 CURVE SMOOTH",
"35 474 OFFCURVE",
"41 -55 OFFCURVE",
"41 -157 CURVE",
"108 -157 OFFCURVE",
"139 -59 OFFCURVE",
"139 -59 CURVE",
"139 441 LINE",
"139 441 OFFCURVE",
"269 441 OFFCURVE",
"299 441 CURVE SMOOTH",
"332 441 OFFCURVE",
"348 486 OFFCURVE",
"348 512 CURVE",
"314 512 OFFCURVE",
"171 512 OFFCURVE",
"137 512 CURVE",
"137 512 OFFCURVE",
"137 534 OFFCURVE",
"137 584 CURVE SMOOTH",
"137 619 OFFCURVE",
"145 617 OFFCURVE",
"151 617 CURVE SMOOTH",
"282 617 OFFCURVE",
"294 600 OFFCURVE",
"294 588 CURVE",
"322 588 OFFCURVE",
"375 663 OFFCURVE",
"375 680 CURVE SMOOTH",
"375 696 OFFCURVE",
"371 700 OFFCURVE",
"310 700 CURVE"
);
},
{
closed = 1;
nodes = (
"256 441 OFFCURVE",
"260 429 OFFCURVE",
"260 418 CURVE SMOOTH",
"260 412 OFFCURVE",
"260 25 OFFCURVE",
"260 15 CURVE SMOOTH",
"260 4 OFFCURVE",
"260 -12 OFFCURVE",
"289 -12 CURVE SMOOTH",
"333 -12 OFFCURVE",
"404 56 OFFCURVE",
"404 90 CURVE",
"383 90 OFFCURVE",
"375 94 OFFCURVE",
"375 109 CURVE SMOOTH",
"375 116 OFFCURVE",
"375 474 OFFCURVE",
"375 485 CURVE SMOOTH",
"375 496 OFFCURVE",
"373 512 OFFCURVE",
"348 512 CURVE SMOOTH",
"313 512 OFFCURVE",
"235 471 OFFCURVE",
"235 441 CURVE"
);
}
);
width = 439;
}
);
leftMetricsKey = f;
rightMetricsKey = i;
unicode = FB01;
},
{
glyphname = fl;
lastChange = "2016-02-25 12:46:59 +0000";
layers = (
{
layerId = "BD382907-E334-4565-904D-93E96FA04A02";
name = Regular;
paths = (
{
closed = 1;
nodes = (
"260 629 OFFCURVE",
"216 637 OFFCURVE",
"151 637 CURVE SMOOTH",
"145 637 OFFCURVE",
"137 639 OFFCURVE",
"137 604 CURVE SMOOTH",
"137 566 OFFCURVE",
"137 524 OFFCURVE",
"137 524 CURVE",
"171 524 OFFCURVE",
"205 524 OFFCURVE",
"239 524 CURVE",
"239 498 OFFCURVE",
"223 453 OFFCURVE",
"190 453 CURVE SMOOTH",
"160 453 OFFCURVE",
"139 453 OFFCURVE",
"139 453 CURVE",
"139 -59 LINE",
"139 -59 OFFCURVE",
"108 -157 OFFCURVE",
"41 -157 CURVE",
"41 -55 OFFCURVE",
"35 474 OFFCURVE",
"35 537 CURVE SMOOTH",
"35 600 OFFCURVE",
"119 700 OFFCURVE",
"161 700 CURVE SMOOTH",
"185 700 OFFCURVE",
"343 700 OFFCURVE",
"348 700 CURVE",
"373 700 OFFCURVE",
"375 684 OFFCURVE",
"375 673 CURVE SMOOTH",
"375 662 OFFCURVE",
"375 116 OFFCURVE",
"375 109 CURVE SMOOTH",
"375 94 OFFCURVE",
"383 90 OFFCURVE",
"404 90 CURVE",
"404 56 OFFCURVE",
"333 -12 OFFCURVE",
"289 -12 CURVE SMOOTH",
"260 -12 OFFCURVE",
"260 4 OFFCURVE",
"260 15 CURVE SMOOTH",
"260 25 OFFCURVE",
"260 592 OFFCURVE",
"260 598 CURVE"
);
}
);
width = 439;
}
);
leftMetricsKey = f;
rightMetricsKey = l;
unicode = FB02;
},
{
glyphname = t_z;
lastChange = "2016-02-27 16:09:11 +0000";
layers = (
{
layerId = "BD382907-E334-4565-904D-93E96FA04A02";
name = Regular;
paths = (
{
closed = 1;
nodes = (
"215 97 OFFCURVE",
"219 97 OFFCURVE",
"207 97 CURVE SMOOTH",
"196 97 OFFCURVE",
"192 103 OFFCURVE",
"192 115 CURVE SMOOTH",
"192 134 OFFCURVE",
"192 396 OFFCURVE",
"192 403 CURVE SMOOTH",
"192 408 OFFCURVE",
"193 410 OFFCURVE",
"198 410 CURVE SMOOTH",
"205 410 OFFCURVE",
"224 410 OFFCURVE",
"224 410 CURVE SMOOTH",
"224 410 OFFCURVE",
"224 410 OFFCURVE",
"256 480 CURVE SMOOTH",
"262 493 OFFCURVE",
"261 500 OFFCURVE",
"249 500 CURVE SMOOTH",
"230 500 OFFCURVE",
"205 500 OFFCURVE",
"198 500 CURVE SMOOTH",
"194 500 OFFCURVE",
"192 502 OFFCURVE",
"192 506 CURVE SMOOTH",
"192 512 OFFCURVE",
"192 668 OFFCURVE",
"192 668 CURVE SMOOTH",
"192 674 OFFCURVE",
"189 679 OFFCURVE",
"182 679 CURVE SMOOTH",
"182 679 OFFCURVE",
"169 679 OFFCURVE",
"163 679 CURVE SMOOTH",
"156 679 OFFCURVE",
"153 674 OFFCURVE",
"153 668 CURVE SMOOTH",
"153 610 OFFCURVE",
"83 500 OFFCURVE",
"45 455 CURVE SMOOTH",
"19 423 OFFCURVE",
"32 410 OFFCURVE",
"45 410 CURVE SMOOTH",
"64 410 OFFCURVE",
"64 410 OFFCURVE",
"70 410 CURVE SMOOTH",
"75 410 OFFCURVE",
"77 408 OFFCURVE",
"77 401 CURVE SMOOTH",
"77 395 OFFCURVE",
"77 109 OFFCURVE",
"77 90 CURVE SMOOTH",
"77 33 OFFCURVE",
"123 -12 OFFCURVE",
"147 -12 CURVE SMOOTH",
"159 -12 OFFCURVE",
"167 -8 OFFCURVE",
"175 0 CURVE SMOOTH",
"215 40 OFFCURVE",
"252 97 OFFCURVE",
"236 97 CURVE SMOOTH"
);
},
{
closed = 1;
nodes = (
"224 500 OFFCURVE",
"188 448 OFFCURVE",
"183 440 CURVE SMOOTH",
"171 422 OFFCURVE",
"168 401 OFFCURVE",
"192 401 CURVE SMOOTH",
"206 401 OFFCURVE",
"386 401 OFFCURVE",
"402 401 CURVE SMOOTH",
"425 401 OFFCURVE",
"428 380 OFFCURVE",
"417 358 CURVE SMOOTH",
"411 347 OFFCURVE",
"272 83 OFFCURVE",
"260 62 CURVE SMOOTH",
"247 40 OFFCURVE",
"229 0 OFFCURVE",
"272 0 CURVE SMOOTH",
"286 0 OFFCURVE",
"542 0 OFFCURVE",
"542 0 CURVE SMOOTH",
"542 0 OFFCURVE",
"586 49 OFFCURVE",
"591 57 CURVE SMOOTH",
"597 65 OFFCURVE",
"612 93 OFFCURVE",
"581 93 CURVE SMOOTH",
"571 93 OFFCURVE",
"454 93 OFFCURVE",
"442 93 CURVE SMOOTH",
"421 93 OFFCURVE",
"417 123 OFFCURVE",
"426 142 CURVE SMOOTH",
"433 154 OFFCURVE",
"581 448 OFFCURVE",
"586 458 CURVE SMOOTH",
"591 467 OFFCURVE",
"610 500 OFFCURVE",
"578 500 CURVE SMOOTH",
"563 500 OFFCURVE",
"224 500 OFFCURVE",
"224 500 CURVE SMOOTH"
);
}
);
width = 635;
}
);
leftMetricsKey = t;
rightMetricsKey = z;
},
{
glyphname = period;
lastChange = "2016-02-15 15:58:41 +0000";
layers = (
{
layerId = "BD382907-E334-4565-904D-93E96FA04A02";
name = Regular;
paths = (
{
closed = 1;
nodes = (
"102 103 OFFCURVE",
"119 65 OFFCURVE",
"147 65 CURVE",
"147 38 OFFCURVE",
"109 0 OFFCURVE",
"77 0 CURVE SMOOTH",
"51 0 OFFCURVE",
"36 35 OFFCURVE",
"10 35 CURVE",
"9 64 OFFCURVE",
"50 103 OFFCURVE",
"76 103 CURVE SMOOTH"
);
}
);
width = 157;
}
);
unicode = 002E;
},
{
glyphname = quotedbl;
lastChange = "2016-02-27 16:11:22 +0000";
layers = (
{
layerId = "BD382907-E334-4565-904D-93E96FA04A02";
name = Regular;
paths = (
{
closed = 1;
nodes = (
"70 636 OFFCURVE",
"54 581 OFFCURVE",
"20 530 CURVE",
"22 525 OFFCURVE",
"28 523 OFFCURVE",
"34 525 CURVE SMOOTH",
"79 541 OFFCURVE",
"159 645 OFFCURVE",
"158 720 CURVE",
"54 682 LINE"
);
},
{
closed = 1;
nodes = (
"210 636 OFFCURVE",
"194 581 OFFCURVE",
"160 530 CURVE",
"162 525 OFFCURVE",
"168 523 OFFCURVE",
"174 525 CURVE SMOOTH",
"219 541 OFFCURVE",
"299 645 OFFCURVE",
"298 720 CURVE",
"194 682 LINE"
);
}
);
width = 298;
}
);
unicode = 0022;
},
{
glyphname = quotesingle;
lastChange = "2016-02-27 16:10:31 +0000";
layers = (
{
layerId = "BD382907-E334-4565-904D-93E96FA04A02";
name = Regular;
paths = (
{
closed = 1;
nodes = (
"70 636 OFFCURVE",
"54 581 OFFCURVE",
"20 530 CURVE",
"22 525 OFFCURVE",
"28 523 OFFCURVE",
"34 525 CURVE SMOOTH",
"79 541 OFFCURVE",
"159 645 OFFCURVE",
"158 720 CURVE",
"54 682 LINE"
);
}
);
width = 58;
}
);
unicode = 0027;
},
{
glyphname = hyphen;
lastChange = "2016-02-27 16:13:45 +0000";
layers = (
{
layerId = "BD382907-E334-4565-904D-93E96FA04A02";
name = Regular;
paths = (
{
closed = 1;
nodes = (
"313 190 OFFCURVE",
"352 227 OFFCURVE",
"352 255 CURVE",
"324 255 OFFCURVE",
"307 293 OFFCURVE",
"280 293 CURVE",
"100 293 LINE",
"75 293 OFFCURVE",
"33 254 OFFCURVE",
"35 224 CURVE",
"61 225 OFFCURVE",
"76 190 OFFCURVE",
"102 190 CURVE",
"282 190 LINE"
);
}
);
width = 387;
}
);
leftMetricsKey = n;
rightMetricsKey = n;
unicode = 002D;
},
{
glyphname = quotedblleft;
lastChange = "2016-02-27 16:11:32 +0000";
layers = (
{
layerId = "BD382907-E334-4565-904D-93E96FA04A02";
name = Regular;
paths = (
{
closed = 1;
nodes = (
"140 720 LINE",
"139 645 OFFCURVE",
"219 541 OFFCURVE",
"264 525 CURVE SMOOTH",
"270 523 OFFCURVE",
"276 525 OFFCURVE",
"278 530 CURVE",
"244 581 OFFCURVE",
"228 636 OFFCURVE",
"244 682 CURVE"
);
},
{
closed = 1;
nodes = (
"0 720 LINE",
"-1 645 OFFCURVE",
"79 541 OFFCURVE",
"124 525 CURVE SMOOTH",
"130 523 OFFCURVE",
"136 525 OFFCURVE",
"138 530 CURVE",
"104 581 OFFCURVE",
"88 636 OFFCURVE",
"104 682 CURVE"
);
}
);
width = 298;
}
);
unicode = 201C;
},
{
glyphname = quotedblright;
lastChange = "2016-02-27 16:11:11 +0000";
layers = (
{
layerId = "BD382907-E334-4565-904D-93E96FA04A02";
name = Regular;
paths = (
{
closed = 1;
nodes = (
"70 636 OFFCURVE",
"54 581 OFFCURVE",
"20 530 CURVE",
"22 525 OFFCURVE",
"28 523 OFFCURVE",
"34 525 CURVE SMOOTH",
"79 541 OFFCURVE",
"159 645 OFFCURVE",
"158 720 CURVE",
"54 682 LINE"
);
},
{
closed = 1;
nodes = (
"210 636 OFFCURVE",
"194 581 OFFCURVE",
"160 530 CURVE",
"162 525 OFFCURVE",
"168 523 OFFCURVE",
"174 525 CURVE SMOOTH",
"219 541 OFFCURVE",
"299 645 OFFCURVE",
"298 720 CURVE",
"194 682 LINE"
);
}
);
width = 298;
}
);
unicode = 201D;
},
{
glyphname = quoteleft;
lastChange = "2016-02-27 16:12:10 +0000";
layers = (
{
layerId = "BD382907-E334-4565-904D-93E96FA04A02";
name = Regular;
paths = (
{
closed = 1;
nodes = (
"0 720 LINE",
"-1 645 OFFCURVE",
"79 541 OFFCURVE",
"124 525 CURVE SMOOTH",
"130 523 OFFCURVE",
"136 525 OFFCURVE",
"138 530 CURVE",
"104 581 OFFCURVE",
"88 636 OFFCURVE",
"104 682 CURVE"
);
}
);
width = 158;
}
);
unicode = 2018;
},
{
glyphname = quoteright;
lastChange = "2016-02-27 16:11:55 +0000";
layers = (
{
layerId = "BD382907-E334-4565-904D-93E96FA04A02";
name = Regular;
paths = (
{
closed = 1;
nodes = (
"70 636 OFFCURVE",
"54 581 OFFCURVE",
"20 530 CURVE",
"22 525 OFFCURVE",
"28 523 OFFCURVE",
"34 525 CURVE SMOOTH",
"79 541 OFFCURVE",
"159 645 OFFCURVE",
"158 720 CURVE",
"54 682 LINE"
);
}
);
width = 158;
}
);
unicode = 2019;
},
{
glyphname = acute;
lastChange = "2016-02-25 11:43:02 +0000";
layers = (
{
anchors = (
{
name = _top;
position = "{288, 500}";
}
);
layerId = "BD382907-E334-4565-904D-93E96FA04A02";
name = Regular;
paths = (
{
closed = 1;
nodes = (
"273 651 OFFCURVE",
"240 605 OFFCURVE",
"190 569 CURVE",
"190 563 OFFCURVE",
"195 559 OFFCURVE",
"202 559 CURVE SMOOTH",
"250 559 OFFCURVE",
"360 629 OFFCURVE",
"385 700 CURVE",
"274 700 LINE"
);
}
);
width = 600;
}
);
unicode = 00B4;
},
{
glyphname = cedilla;
lastChange = "2016-02-25 11:33:26 +0000";
layers = (
{
anchors = (
{
name = _cedilla;
position = "{242, 0}";
}
);
layerId = "BD382907-E334-4565-904D-93E96FA04A02";
name = Regular;
paths = (
{
closed = 1;
nodes = (
"231 -37 OFFCURVE",
"206 -53 OFFCURVE",
"206 -89 CURVE SMOOTH",
"206 -124 OFFCURVE",
"236 -142 OFFCURVE",
"266 -142 CURVE SMOOTH",
"291 -142 OFFCURVE",
"320 -119 OFFCURVE",
"320 -78 CURVE SMOOTH",
"320 -37 OFFCURVE",
"284 -20 OFFCURVE",
"256 0 CURVE",
"225 0 LINE",
"266 -20 OFFCURVE",
"271 -37 OFFCURVE",
"271 -58 CURVE SMOOTH",
"271 -71 OFFCURVE",
"266 -78 OFFCURVE",
"251 -78 CURVE SMOOTH",
"244 -78 OFFCURVE",
"231 -71 OFFCURVE",
"231 -58 CURVE SMOOTH"
);
}
);
width = 600;
}
);
unicode = 00B8;
},
{
glyphname = circumflex;
lastChange = "2016-02-25 18:26:50 +0000";
layers = (
{
anchors = (
{
name = _circumflex;
position = "{301, 500}";
}
);
layerId = "BD382907-E334-4565-904D-93E96FA04A02";
name = Regular;
paths = (
{
closed = 1;
nodes = (
"283 651 OFFCURVE",
"250 605 OFFCURVE",
"200 569 CURVE",
"200 563 OFFCURVE",
"205 559 OFFCURVE",
"212 559 CURVE SMOOTH",
"237 559 OFFCURVE",
"276 577 OFFCURVE",
"314 605 CURVE",
"314 700 LINE",
"284 700 LINE"
);
},
{
closed = 1;
nodes = (
"284 700 LINE",
"284 605 LINE",
"322 577 OFFCURVE",
"361 559 OFFCURVE",
"386 559 CURVE SMOOTH",
"393 559 OFFCURVE",
"398 563 OFFCURVE",
"398 569 CURVE",
"348 605 OFFCURVE",
"315 651 OFFCURVE",
"314 700 CURVE"
);
}
);
width = 600;
}
);
unicode = 02C6;
},
{
glyphname = dieresis;
lastChange = "2016-02-25 11:25:07 +0000";
layers = (
{
anchors = (
{
name = _dieresis;
position = "{283, 500}";
}
);
layerId = "BD382907-E334-4565-904D-93E96FA04A02";
name = Regular;
paths = (
{
closed = 1;
nodes = (
"248 577 OFFCURVE",
"223 551 OFFCURVE",
"185 551 CURVE SMOOTH",
"153 551 OFFCURVE",
"127 577 OFFCURVE",
"127 608 CURVE SMOOTH",
"127 645 OFFCURVE",
"153 671 OFFCURVE",
"185 671 CURVE SMOOTH",
"223 671 OFFCURVE",
"248 645 OFFCURVE",
"248 608 CURVE SMOOTH"
);
},
{
closed = 1;
nodes = (
"438 577 OFFCURVE",
"413 551 OFFCURVE",
"375 551 CURVE SMOOTH",
"343 551 OFFCURVE",
"317 577 OFFCURVE",
"317 608 CURVE SMOOTH",
"317 645 OFFCURVE",
"343 671 OFFCURVE",
"375 671 CURVE SMOOTH",
"413 671 OFFCURVE",
"438 645 OFFCURVE",
"438 608 CURVE SMOOTH"
);
}
);
width = 600;
}
);
unicode = 00A8;
},
{
glyphname = dotaccent;
lastChange = "2016-02-15 18:11:44 +0000";
layers = (
{
anchors = (
{
name = _dotaccent;
position = "{215, 500}";
}
);
layerId = "BD382907-E334-4565-904D-93E96FA04A02";
name = Regular;
paths = (
{
closed = 1;
nodes = (
"278 577 OFFCURVE",
"253 551 OFFCURVE",
"215 551 CURVE SMOOTH",
"183 551 OFFCURVE",
"157 577 OFFCURVE",
"157 608 CURVE SMOOTH",
"157 645 OFFCURVE",
"183 671 OFFCURVE",
"215 671 CURVE SMOOTH",
"253 671 OFFCURVE",
"278 645 OFFCURVE",
"278 608 CURVE SMOOTH"
);
}
);
width = 600;
}
);
unicode = 02D9;
},
{
glyphname = grave;
lastChange = "2016-02-25 18:38:40 +0000";
layers = (
{
anchors = (
{
name = _grave;
position = "{295, 500}";
}
);
layerId = "BD382907-E334-4565-904D-93E96FA04A02";
name = Regular;
paths = (
{
closed = 1;
nodes = (
"112 700 LINE",
"137 629 OFFCURVE",
"247 559 OFFCURVE",
"295 559 CURVE SMOOTH",
"302 559 OFFCURVE",
"307 563 OFFCURVE",
"307 569 CURVE",
"257 605 OFFCURVE",
"224 651 OFFCURVE",
"223 700 CURVE"
);
}
);
width = 600;
}
);
unicode = 0060;
},
{
glyphname = ogonek;
lastChange = "2016-02-25 11:41:21 +0000";
layers = (
{
anchors = (
{
name = _ogonek;
position = "{284, 0}";
}
);
layerId = "BD382907-E334-4565-904D-93E96FA04A02";
name = Regular;
paths = (
{
closed = 1;
nodes = (
"295 -71 OFFCURVE",
"282 -78 OFFCURVE",
"275 -78 CURVE SMOOTH",
"260 -78 OFFCURVE",
"255 -71 OFFCURVE",
"255 -58 CURVE SMOOTH",
"255 -37 OFFCURVE",
"260 -20 OFFCURVE",
"301 0 CURVE",
"270 0 LINE",
"242 -20 OFFCURVE",
"206 -37 OFFCURVE",
"206 -78 CURVE SMOOTH",
"206 -119 OFFCURVE",
"235 -142 OFFCURVE",
"260 -142 CURVE SMOOTH",
"290 -142 OFFCURVE",
"320 -124 OFFCURVE",
"320 -89 CURVE SMOOTH",
"320 -53 OFFCURVE",
"295 -37 OFFCURVE",
"295 -58 CURVE SMOOTH"
);
}
);
width = 600;
}
);
unicode = 02DB;
},
{
glyphname = ring;
lastChange = "2016-02-25 11:49:03 +0000";
layers = (
{
anchors = (
{
name = _ring;
position = "{215, 500}";
}
);
layerId = "BD382907-E334-4565-904D-93E96FA04A02";
name = Regular;
paths = (
{
closed = 1;
nodes = (
"263 637 OFFCURVE",
"244 656 OFFCURVE",
"216 656 CURVE SMOOTH",
"192 656 OFFCURVE",
"172 637 OFFCURVE",
"172 609 CURVE SMOOTH",
"172 585 OFFCURVE",
"192 566 OFFCURVE",
"216 566 CURVE SMOOTH",
"244 566 OFFCURVE",
"263 585 OFFCURVE",
"263 609 CURVE SMOOTH"
);
},
{
closed = 1;
nodes = (
"306 561 OFFCURVE",
"269 523 OFFCURVE",
"214 523 CURVE SMOOTH",
"167 523 OFFCURVE",
"129 561 OFFCURVE",
"129 607 CURVE SMOOTH",
"129 661 OFFCURVE",
"167 699 OFFCURVE",
"214 699 CURVE SMOOTH",
"269 699 OFFCURVE",
"306 661 OFFCURVE",
"306 607 CURVE SMOOTH"
);
}
);
width = 600;
}
);
unicode = 02DA;
},
